<?xml version="1.0" standalone="no"?>
<!DOCTYPE svg PUBLIC "-//W3C//DTD SVG 1.1//EN" "http://www.w3.org/Graphics/SVG/1.1/DTD/svg11.dtd" >
<svg xmlns="http://www.w3.org/2000/svg">
<metadata></metadata>
<defs>
<font id="ristretto_slab_pro_rgregular" horiz-adv-x="665" >
<font-face units-per-em="2048" ascent="1536" descent="-512" />
<missing-glyph horiz-adv-x="317" />
<glyph horiz-adv-x="0" />
<glyph horiz-adv-x="682" />
<glyph unicode=" "  horiz-adv-x="317" />
<glyph unicode="&#x09;" horiz-adv-x="317" />
<glyph unicode="&#xa0;" horiz-adv-x="317" />
<glyph unicode="!" horiz-adv-x="317" d="M100 0v190h117v-190h-117zM100 377v1057h117v-1057h-117z" />
<glyph unicode="&#x22;" horiz-adv-x="509" d="M96 1126v359h94v-359h-94zM319 1126v359h95v-359h-95z" />
<glyph unicode="#" horiz-adv-x="751" d="M80 307v99h86v622h-86v98h86v308h117v-308h198v308h117v-308h86v-98h-86v-622h86v-99h-86v-307h-117v307h-198v-307h-117v307h-86zM283 406h198v622h-198v-622z" />
<glyph unicode="$" d="M84 78v278h117v-217q6 -5 16.5 -13.5t44.5 -22t70 -13.5q57 0 95 36t38 99v230q0 46 -21 79.5t-54.5 54t-73.5 38.5t-80.5 39t-74 49t-54.5 76t-21 112v205q0 94 54.5 153.5t140.5 71.5v203h102v-203q56 -5 105.5 -25.5t70.5 -38.5l21 -18v-329h-117v268q-6 6 -16 14.5 t-44.5 22.5t-70.5 14q-55 0 -92 -36t-37 -97v-205q0 -47 21 -81t54.5 -54.5t73.5 -38t80.5 -39t74 -49t54.5 -75t21 -111.5v-230q0 -95 -55.5 -155.5t-143.5 -71.5v-203h-102v203q-56 5 -105.5 25t-70.5 37z" />
<glyph unicode="%" horiz-adv-x="1034" d="M96 997v256q0 87 53 138t134 51q80 0 135 -51.5t55 -137.5v-256q0 -87 -54.5 -136.5t-135.5 -49.5t-134 49.5t-53 136.5zM178 997q0 -51 30 -79.5t75 -28.5t75.5 29t30.5 79v256q0 51 -30.5 81t-75.5 30q-44 0 -74.5 -30t-30.5 -81v-256zM186 0l568 1434h94l-569 -1434 h-93zM561 178v256q0 87 53 138t134 51t135.5 -51t54.5 -138v-256q0 -87 -54.5 -136.5t-135.5 -49.5t-134 49.5t-53 136.5zM645 178q0 -51 29 -79.5t74 -28.5t75.5 29t30.5 79v256q0 51 -30.5 81t-75.5 30q-44 0 -73.5 -30t-29.5 -81v-256z" />
<glyph unicode="&#x26;" d="M84 225v299q0 73 33 126.5t92 82.5q-58 25 -91.5 78.5t-33.5 128.5v266q0 109 70.5 172.5t177.5 63.5q45 0 87 -9t70.5 -22t50.5 -26t32 -22l10 -9v-297h-117v235q-6 6 -16.5 14.5t-45.5 22.5t-71 14q-56 0 -93.5 -37t-37.5 -100v-291q0 -62 37.5 -98.5t93.5 -36.5h133 v84h117v-639q0 -109 -71.5 -171t-178.5 -62t-177.5 62t-70.5 171zM201 225q0 -62 37.5 -98.5t93.5 -36.5q57 0 95 36t38 99v457h-133q-56 0 -93.5 -37t-37.5 -100v-320z" />
<glyph unicode="'" horiz-adv-x="286" d="M96 1126v359h94v-359h-94z" />
<glyph unicode="(" horiz-adv-x="401" d="M84 20v1289q0 109 70.5 172t177.5 63h20v-98h-20q-56 0 -93.5 -37t-37.5 -100v-1289q0 -62 37.5 -98.5t93.5 -36.5h20v-98h-20q-107 0 -177.5 62t-70.5 171z" />
<glyph unicode=")" horiz-adv-x="401" d="M49 -115h21q57 0 95 37.5t38 100.5v1288q0 63 -38 99t-95 36h-21v98h21q108 0 178.5 -62t70.5 -171v-1288q0 -109 -70.5 -172.5t-178.5 -63.5h-21v98z" />
<glyph unicode="*" horiz-adv-x="698" d="M68 1122v99h194l-98 172l84 49l100 -174l98 174l86 -49l-100 -172h201v-99h-201l98 -170l-84 -49l-98 170l-98 -170l-84 49l98 170h-196z" />
<glyph unicode="+" horiz-adv-x="698" d="M68 588v98h231v244h98v-244h236v-98h-236v-244h-98v244h-231z" />
<glyph unicode="," horiz-adv-x="305" d="M39 -250q6 15 15.5 40.5t25.5 91.5t16 118v190h113v-190q0 -52 -18 -114.5t-36 -99.5l-18 -36h-98z" />
<glyph unicode="-" horiz-adv-x="450" d="M68 514v96h315v-96h-315z" />
<glyph unicode="." horiz-adv-x="305" d="M96 0v190h113v-190h-113z" />
<glyph unicode="/" horiz-adv-x="612" d="M68 -205l362 1733h117l-363 -1733h-116z" />
<glyph unicode="0" d="M84 225v930q0 109 70.5 172.5t177.5 63.5t178.5 -63.5t71.5 -172.5v-930q0 -109 -71.5 -171t-178.5 -62t-177.5 62t-70.5 171zM201 225q0 -62 37.5 -98.5t93.5 -36.5q57 0 95 36t38 99v930q0 63 -38 100t-95 37q-56 0 -93.5 -37t-37.5 -100v-930z" />
<glyph unicode="1" horiz-adv-x="632" d="M70 0v98h190v1172l-190 -115v113l190 114h117v-1284h184v-98h-491z" />
<glyph unicode="2" horiz-adv-x="657" d="M80 1012v303q4 3 11 8t30.5 18.5t50 23.5t68 18t84.5 8q107 0 178 -63.5t71 -172.5v-305q0 -63 -20.5 -117t-53 -93t-72 -74t-79 -68t-72 -67t-53 -77.5t-20.5 -93.5v-162h370v-98h-487v260q0 63 20.5 117t53 93t72 74.5t79.5 68.5t72.5 67t53 77.5t20.5 92.5v305 q0 63 -38 100t-95 37q-35 0 -66.5 -10t-45.5 -20l-15 -9v-241h-117z" />
<glyph unicode="3" horiz-adv-x="657" d="M80 1012v303q4 3 11 8t30.5 18.5t50 23.5t68 18t84.5 8q107 0 178 -63.5t71 -172.5v-221q0 -77 -38 -132t-103 -79q67 -24 106.5 -80t39.5 -135v-281q0 -109 -71.5 -172t-178.5 -63q-68 0 -129 19t-88 38l-27 19v303h117v-242q49 -39 127 -39q57 0 95 37t38 100v310 q0 63 -38 99t-95 36h-101v98h97q57 0 95 36t38 99v250q0 63 -38 100t-95 37q-35 0 -66.5 -10t-45.5 -20l-15 -9v-241h-117z" />
<glyph unicode="4" horiz-adv-x="653" d="M51 274v99l322 1009h178v-1009h63v-99h-63v-176h63v-98h-239v98h63v176h-387zM162 373h276v878h-4z" />
<glyph unicode="5" d="M84 78v293h117v-232q6 -5 16.5 -13.5t44.5 -22t70 -13.5q57 0 95 36t38 99v430q0 48 -28.5 76.5t-71.5 28.5q-66 0 -115 -46t-49 -100h-117v768h477v-319h-102v221h-258v-541q35 55 90.5 85t120.5 30q72 0 121 -47.5t49 -128.5v-457q0 -109 -71.5 -171t-178.5 -62 q-70 0 -132 21.5t-89 42.5z" />
<glyph unicode="6" d="M84 225v930q0 109 71.5 172.5t178.5 63.5q68 0 129 -19t88 -38l27 -19v-303h-117v241q-49 39 -127 39q-57 0 -95 -37t-38 -100v-434q35 55 90.5 85t120.5 30q72 0 121 -48t49 -129v-434q0 -109 -71.5 -171t-178.5 -62t-177.5 62t-70.5 171zM201 225q0 -62 37.5 -98.5 t93.5 -36.5q57 0 95 36t38 99v408q0 48 -28.5 76t-71.5 28q-69 0 -116.5 -47.5t-47.5 -124.5v-340z" />
<glyph unicode="7" horiz-adv-x="628" d="M68 1063v319h495v-63l-274 -1319h-119l268 1284h-270v-221h-100z" />
<glyph unicode="8" d="M84 225v273q0 73 33.5 126.5t91.5 80.5q-125 58 -125 208v242q0 109 70.5 172.5t177.5 63.5t178.5 -63.5t71.5 -172.5v-242q0 -74 -34 -127.5t-93 -80.5q59 -27 93 -80.5t34 -126.5v-273q0 -109 -71.5 -171t-178.5 -62t-177.5 62t-70.5 171zM201 225q0 -62 37.5 -98.5 t93.5 -36.5q57 0 95 36t38 99v293q0 63 -38 100t-95 37q-56 0 -93.5 -37t-37.5 -100v-293zM201 889q0 -62 37.5 -98.5t93.5 -36.5q57 0 95 36t38 99v266q0 63 -38 100t-95 37q-56 0 -93.5 -37t-37.5 -100v-266z" />
<glyph unicode="9" d="M84 74v268h117v-207q6 -5 16 -12.5t43.5 -20t69.5 -12.5q57 0 96 38t39 101v430q-35 -55 -90 -83.5t-121 -28.5q-72 0 -121 47t-49 127v436q0 109 71.5 171.5t178.5 62.5t177.5 -62.5t70.5 -171.5v-928q0 -109 -72 -173t-180 -64q-69 0 -130.5 20.5t-88.5 41.5zM201 748 q0 -48 28.5 -75.5t71.5 -27.5q70 0 117 46.5t47 123.5v342q0 62 -37.5 98.5t-93.5 36.5q-57 0 -95 -36t-38 -99v-409z" />
<glyph unicode=":" horiz-adv-x="305" d="M96 0v190h113v-190h-113zM96 831v193h113v-193h-113z" />
<glyph unicode=";" horiz-adv-x="305" d="M39 -250q6 15 15.5 40.5t25.5 91.5t16 118v190h113v-190q0 -52 -18 -114.5t-36 -99.5l-18 -36h-98zM96 831v193h113v-193h-113z" />
<glyph unicode="&#x3c;" horiz-adv-x="845" d="M96 537v153l654 213v-121l-547 -166v-4l547 -168v-120z" />
<glyph unicode="=" horiz-adv-x="698" d="M68 410v98h565v-98h-565zM68 721v98h565v-98h-565z" />
<glyph unicode="&#x3e;" horiz-adv-x="845" d="M96 326v120l547 166v4l-547 168v121l654 -213v-153z" />
<glyph unicode="?" horiz-adv-x="657" d="M80 1063v303q4 3 10.5 8t30.5 18.5t50 23.5t67.5 18t85.5 8q107 0 178 -63.5t71 -172.5v-213q0 -69 -14 -118.5t-35.5 -74t-46.5 -48.5t-46.5 -44.5t-35.5 -61t-14 -97.5v-172h-117v172q0 60 10.5 104t27.5 70t37.5 46t41.5 38.5t38 40.5t27.5 58.5t10.5 86.5v213 q0 62 -38.5 99.5t-94.5 37.5q-35 0 -66.5 -9.5t-45.5 -19.5l-15 -9v-242h-117zM264 0v190h117v-190h-117z" />
<glyph unicode="@" horiz-adv-x="1456" d="M96 205v612q0 145 49.5 264.5t135 197.5t199.5 120.5t245 42.5t246 -42.5t202 -120.5t137 -197.5t50 -264.5v-817h-500v106q-37 -55 -91.5 -84.5t-119.5 -29.5q-72 0 -121 47t-49 129v631q0 109 71.5 171t178.5 62q70 0 132 -19t89 -38l27 -19v-858h266v719 q0 159 -70.5 280.5t-187 183.5t-260.5 62q-142 0 -257.5 -62t-185 -183t-69.5 -281v-612q0 -121 40 -221t110 -166t163 -101.5t199 -35.5v-99q-131 0 -245 42t-200 119.5t-135 196.5t-49 265zM596 195q0 -49 28 -77t70 -28q71 0 118.5 46.5t47.5 123.5v635q-51 39 -131 39 q-57 0 -95 -36t-38 -99v-604z" />
<glyph unicode="A" horiz-adv-x="673" d="M-2 0v98h59l189 1237h-49v99h217l198 -1336h64v-98h-168l-55 385h-234l-45 -287h59v-98h-235zM227 483h219l-106 809h-4z" />
<glyph unicode="B" horiz-adv-x="679" d="M51 0v98h60v1237h-60v99h295q107 0 178.5 -63.5t71.5 -172.5v-244q0 -77 -38.5 -132t-102.5 -79q67 -24 106 -79.5t39 -135.5v-292q0 -109 -71.5 -172.5t-178.5 -63.5h-299zM227 98h123q57 0 95 37.5t38 100.5v321q0 63 -38 99t-95 36h-123v-594zM227 791h119q57 0 95 36 t38 99v272q0 63 -38 100t-95 37h-119v-544z" />
<glyph unicode="C" horiz-adv-x="653" d="M84 219v993q0 106 69.5 168t172.5 62q68 0 129 -18.5t87 -37.5l27 -18v-344h-116v281q-49 38 -127 38q-54 0 -89.5 -35.5t-35.5 -95.5v-993q0 -60 35.5 -94.5t89.5 -34.5t90.5 34.5t36.5 94.5v191h116v-191q0 -105 -69.5 -166t-173.5 -61t-173 61t-69 166z" />
<glyph unicode="D" horiz-adv-x="686" d="M51 0v98h60v1237h-60v99h301q107 0 178.5 -63.5t71.5 -172.5v-965q0 -109 -71.5 -171t-178.5 -62h-301zM227 98h125q57 0 95 36t38 99v965q0 63 -38 100t-95 37h-125v-1237z" />
<glyph unicode="E" horiz-adv-x="651" d="M51 0v98h60v1237h-60v99h516v-410h-100v311h-240v-551h299v-98h-299v-588h240v312h100v-410h-516z" />
<glyph unicode="F" horiz-adv-x="647" d="M51 0v98h60v1237h-60v99h516v-410h-100v311h-240v-551h299v-98h-299v-588h60v-98h-236z" />
<glyph unicode="G" horiz-adv-x="653" d="M84 219v993q0 106 69.5 168t172.5 62q68 0 129 -18.5t87 -37.5l27 -18v-344h-116v281q-49 38 -127 38q-54 0 -89.5 -35.5t-35.5 -95.5v-993q0 -60 35.5 -94.5t89.5 -34.5t90.5 34.5t36.5 94.5v451h-125v98h241v-549q0 -105 -69.5 -166t-173.5 -61t-173 61t-69 166z" />
<glyph unicode="H" horiz-adv-x="718" d="M51 0v98h60v1237h-60v99h176v-650h265v551h-60v99h236v-99h-60v-1237h60v-98h-176v686h-265v-588h60v-98h-236z" />
<glyph unicode="I" horiz-adv-x="337" d="M51 0v98h60v1237h-60v99h236v-99h-60v-1237h60v-98h-236z" />
<glyph unicode="J" horiz-adv-x="663" d="M84 66v344h117v-283q49 -37 125 -37q54 0 90.5 35.5t36.5 95.5v1114h-60v99h236v-99h-60v-1114q0 -106 -69 -167.5t-174 -61.5q-68 0 -128.5 18.5t-87.5 37.5z" />
<glyph unicode="K" horiz-adv-x="684" d="M51 0v98h60v1237h-60v99h176v-650h76l182 551h-55v99h232v-99h-62l-205 -600l213 -637h60v-98h-156l-207 686h-78v-588h60v-98h-236z" />
<glyph unicode="L" horiz-adv-x="612" d="M51 0v98h60v1237h-60v99h236v-99h-60v-1237h230v312h100v-410h-506z" />
<glyph unicode="M" horiz-adv-x="995" d="M51 0v98h60v1237h-60v99h234l209 -1256h4l213 1256h233v-99h-59v-1237h59v-98h-172v1227h-4l-203 -1227h-137l-201 1227h-4v-1129h60v-98h-232z" />
<glyph unicode="N" horiz-adv-x="722" d="M51 0v98h60v1237h-60v99h166l277 -1080h6v981h-60v99h232v-99h-60v-1335h-106l-279 1079h-4v-981h60v-98h-232z" />
<glyph unicode="O" d="M84 225v981q0 109 70.5 172.5t177.5 63.5t178.5 -63.5t71.5 -172.5v-981q0 -109 -71.5 -171t-178.5 -62t-177.5 62t-70.5 171zM201 225q0 -62 37.5 -98.5t93.5 -36.5q57 0 95 36t38 99v981q0 63 -38 100t-95 37q-56 0 -93.5 -37t-37.5 -100v-981z" />
<glyph unicode="P" horiz-adv-x="679" d="M51 0v98h60v1237h-60v99h295q107 0 178.5 -63.5t71.5 -172.5v-377q0 -109 -71.5 -171t-178.5 -62h-119v-490h60v-98h-236zM227 686h119q57 0 95 36t38 99v377q0 63 -38 100t-95 37h-119v-649z" />
<glyph unicode="Q" d="M84 225v981q0 109 70.5 172.5t177.5 63.5t178.5 -63.5t71.5 -172.5v-981q0 -94 -53 -152.5t-140 -72.5v-31q0 -62 38.5 -98.5t94.5 -36.5h60v-98h-60q-108 0 -179 62t-71 171v31q-85 14 -136.5 72.5t-51.5 152.5zM201 225q0 -62 37.5 -98.5t93.5 -36.5q57 0 95 36t38 99 v981q0 63 -38 100t-95 37q-56 0 -93.5 -37t-37.5 -100v-981z" />
<glyph unicode="R" horiz-adv-x="690" d="M51 0v98h60v1237h-60v99h295q107 0 178.5 -63.5t71.5 -172.5v-340q0 -82 -41.5 -135.5t-110.5 -73.5l168 -551h60v-98h-158l-170 625h-117v-527h60v-98h-236zM227 723h119q57 0 95 36t38 99v340q0 63 -38 100t-95 37h-119v-612z" />
<glyph unicode="S" d="M84 66v344h117v-283q49 -37 131 -37q57 0 95 37t38 98v281q0 46 -21 79.5t-54.5 54t-73.5 38.5t-80.5 39t-74 49t-54.5 76t-21 112v256q0 107 70.5 169.5t175.5 62.5q70 0 132 -18.5t89 -37.5l27 -18v-344h-117v281q-51 38 -131 38q-55 0 -92 -36t-37 -97v-256 q0 -47 21 -81t54.5 -54.5t73.5 -38.5t80.5 -39t74 -48.5t54.5 -75t21 -111.5v-281q0 -107 -71 -170t-179 -63q-70 0 -132 18.5t-89 37.5z" />
<glyph unicode="T" horiz-adv-x="686" d="M47 1024v410h592v-410h-100v311h-138v-1237h60v-98h-236v98h60v1237h-135v-311h-103z" />
<glyph unicode="U" horiz-adv-x="686" d="M35 1335v99h176v-1209q0 -62 37.5 -98.5t93.5 -36.5q57 0 95 36t38 99v1110h-59v99h235v-99h-59v-1110q0 -109 -71.5 -171t-178.5 -62t-177.5 62t-70.5 171v1110h-59z" />
<glyph unicode="V" horiz-adv-x="673" d="M-2 1335v99h168l168 -1293h4l160 1194h-58v99h236v-99h-64l-198 -1335h-154l-203 1335h-59z" />
<glyph unicode="W" horiz-adv-x="1120" d="M0 1335v99h168l162 -1297h4l147 1297h156l145 -1297h4l156 1198h-59v99h233v-99h-59l-197 -1335h-155l-144 1286h-4l-143 -1286h-156l-199 1335h-59z" />
<glyph unicode="X" horiz-adv-x="673" d="M4 0v98h59l185 639l-176 598h-62v99h160l164 -641h4l149 542h-59v99h234v-99h-60l-176 -600l182 -637h64v-98h-162l-170 682h-4l-158 -584h60v-98h-234z" />
<glyph unicode="Y" horiz-adv-x="673" d="M2 1335v99h162l170 -764h4l156 665h-58v99h234v-99h-64l-213 -858v-379h60v-98h-236v98h59v379l-210 858h-64z" />
<glyph unicode="Z" horiz-adv-x="655" d="M80 0v63l371 1272h-271v-311h-100v410h495v-64l-368 -1272h266v312h102v-410h-495z" />
<glyph unicode="[" horiz-adv-x="401" d="M84 -207v1743h268v-98h-151v-1544h151v-101h-268z" />
<glyph unicode="\" horiz-adv-x="612" d="M68 1528h116l363 -1733h-117z" />
<glyph unicode="]" horiz-adv-x="401" d="M49 -111h154v1547h-154v100h270v-1743h-270v96z" />
<glyph unicode="^" horiz-adv-x="692" d="M63 1169l326 275l326 -275l-70 -69l-256 221l-258 -221z" />
<glyph unicode="_" d="M0 -51h666v-99h-666v99z" />
<glyph unicode="`" horiz-adv-x="555" d="M117 1366l69 70l252 -209l-69 -72z" />
<glyph unicode="a" horiz-adv-x="675" d="M84 162v190q0 106 63 163.5t166 70.5l152 18v195q0 61 -36.5 98t-92.5 37q-35 0 -67 -10t-47 -20l-15 -9v-197h-117v258q4 3 11 8t31 18.5t50.5 23.5t68 18t85.5 8q107 0 176.5 -62t69.5 -171v-701h59v-98h-176v106q-34 -55 -93.5 -84.5t-123.5 -29.5q-70 0 -117 45.5 t-47 124.5zM201 188q0 -46 27 -72t67 -26q67 0 118.5 47t51.5 123v246l-131 -17q-60 -8 -96.5 -42t-36.5 -95v-164z" />
<glyph unicode="b" horiz-adv-x="677" d="M37 1386v99h176v-567q37 55 91.5 84.5t119.5 29.5q74 0 123 -47t49 -129v-631q0 -108 -72.5 -170.5t-179.5 -62.5q-70 0 -132 19t-89 38l-27 19v1318h-59zM213 129q51 -39 131 -39q58 0 96.5 36.5t38.5 98.5v604q0 48 -29 76.5t-71 28.5q-71 0 -118.5 -46.5t-47.5 -123.5 v-635z" />
<glyph unicode="c" horiz-adv-x="653" d="M84 219v584q0 105 69.5 167t172.5 62q68 0 129 -19t87 -38l27 -19v-258h-116v197q-49 39 -127 39q-54 0 -89.5 -35.5t-35.5 -95.5v-584q0 -60 35.5 -94.5t89.5 -34.5t90.5 34.5t36.5 94.5v107h116v-107q0 -105 -69.5 -166t-173.5 -61t-173 61t-69 166z" />
<glyph unicode="d" horiz-adv-x="692" d="M84 168v631q0 109 65 171t164 62q88 0 152 -35v389h-59v99h176v-1387h59v-98h-176v106q-35 -55 -90.5 -84.5t-120.5 -29.5q-72 0 -121 47t-49 129zM201 195q0 -49 28.5 -77t71.5 -28q70 0 117 46.5t47 123.5v635q-51 39 -131 39q-57 0 -95 -36t-38 -99v-604z" />
<glyph unicode="e" d="M84 225v572q0 109 70.5 172t177.5 63t178.5 -63t71.5 -172v-322h-381v-250q0 -62 37.5 -98.5t93.5 -36.5q57 0 95 36t38 99v101h117v-101q0 -109 -71.5 -171t-178.5 -62t-177.5 62t-70.5 171zM201 573h264v224q0 67 -37 102t-96 35q-57 0 -94 -35t-37 -102v-224z" />
<glyph unicode="f" horiz-adv-x="495" d="M51 0v98h60v828h-60v98h60v233q0 110 68.5 173t172.5 63q47 0 101 -12v-101q-45 15 -91 15q-58 0 -96.5 -37.5t-38.5 -100.5v-233h226v-98h-226v-828h60v-98h-236z" />
<glyph unicode="g" d="M84 168v631q0 109 71.5 171t178.5 62q70 0 132 -19t89 -38l27 -19v-1189q0 -109 -69.5 -172.5t-174.5 -63.5q-69 0 -131 19t-89 38l-28 19v213h117v-152q51 -39 129 -39q56 0 92.5 37.5t36.5 100.5v339q-35 -55 -90.5 -84.5t-120.5 -29.5q-72 0 -121 47t-49 129zM201 195 q0 -49 28.5 -77t71.5 -28q70 0 117 46.5t47 123.5v635q-51 39 -131 39q-57 0 -95 -36t-38 -99v-604z" />
<glyph unicode="h" horiz-adv-x="702" d="M51 0v98h60v1288h-60v99h176v-567q37 55 91.5 84.5t119.5 29.5q72 0 121 -47t49 -129v-758h60v-98h-176v829q0 48 -29 76.5t-72 28.5q-70 0 -117 -46.5t-47 -123.5v-666h60v-98h-236z" />
<glyph unicode="i" horiz-adv-x="337" d="M51 0v98h60v828h-60v98h176v-926h60v-98h-236zM111 1241v193h116v-193h-116z" />
<glyph unicode="j" horiz-adv-x="327" d="M-80 -356q30 -15 76 -15q49 0 82 30t33 81v1186h-60v98h176v-1284q0 -96 -63 -152.5t-156 -56.5q-55 0 -88 14v99zM111 1241v193h116v-193h-116z" />
<glyph unicode="k" horiz-adv-x="684" d="M51 0v98h60v1288h-60v99h176v-914h95l155 355h-55v98h231v-98h-63l-180 -402l188 -426h61v-98h-147l-190 477h-95v-379h60v-98h-236z" />
<glyph unicode="l" horiz-adv-x="337" d="M51 0v98h60v1288h-60v99h176v-1387h60v-98h-236z" />
<glyph unicode="m" horiz-adv-x="1085" d="M51 0v98h60v828h-60v98h176v-106q37 55 91.5 84.5t119.5 29.5q61 0 107 -31.5t59 -87.5q36 57 93.5 88t121.5 31q74 0 123 -47t49 -129v-758h60v-98h-177v829q0 48 -28.5 76.5t-71.5 28.5q-69 0 -117 -47t-49 -121v-668h60v-98h-176v829q0 48 -29 76.5t-72 28.5 q-70 0 -117 -46.5t-47 -123.5v-666h60v-98h-236z" />
<glyph unicode="n" horiz-adv-x="702" d="M51 0v98h60v828h-60v98h176v-106q37 55 91.5 84.5t119.5 29.5q72 0 121 -47t49 -129v-758h60v-98h-176v829q0 48 -29 76.5t-72 28.5q-70 0 -117 -46.5t-47 -123.5v-666h60v-98h-236z" />
<glyph unicode="o" d="M84 225v572q0 109 70.5 172t177.5 63t178.5 -63t71.5 -172v-572q0 -109 -71.5 -171t-178.5 -62t-177.5 62t-70.5 171zM201 225q0 -62 37.5 -98.5t93.5 -36.5q57 0 95 36t38 99v572q0 63 -38 100t-95 37q-56 0 -93.5 -37t-37.5 -100v-572z" />
<glyph unicode="p" horiz-adv-x="692" d="M51 -311h60v1237h-60v98h176v-106q37 55 91.5 84.5t119.5 29.5q72 0 121 -47t49 -129v-631q0 -109 -64.5 -171t-162.5 -62q-90 0 -154 35v-338h60v-99h-236v99zM227 129q51 -39 131 -39q58 0 96 36t38 99v604q0 48 -29 76.5t-72 28.5q-70 0 -117 -46.5t-47 -123.5v-635z " />
<glyph unicode="q" d="M84 168v631q0 109 71.5 171t178.5 62q70 0 132 -19t89 -38l27 -19v-1267h59v-99h-235v99h59v417q-35 -55 -90.5 -84.5t-120.5 -29.5q-72 0 -121 47t-49 129zM201 195q0 -49 28.5 -77t71.5 -28q70 0 117 46.5t47 123.5v635q-51 39 -131 39q-57 0 -95 -36t-38 -99v-604z " />
<glyph unicode="r" horiz-adv-x="610" d="M51 0v98h60v828h-60v98h176v-150q71 158 205 158q36 0 67 -19t45 -38l13 -19v-258h-117v197q-2 4 -7 10.5t-21 17.5t-33 11q-70 0 -111 -68.5t-41 -167.5v-600h60v-98h-236z" />
<glyph unicode="s" horiz-adv-x="653" d="M84 68v258h117v-197q49 -39 125 -39q54 0 90.5 35.5t36.5 93.5v123q0 55 -38 87t-91.5 49t-107.5 37.5t-92 69.5t-38 128v94q0 104 68 164.5t170 60.5q67 0 126 -19t85 -38l26 -19v-258h-117v197q-48 39 -120 39q-52 0 -86.5 -34t-34.5 -93v-94q0 -41 20 -68.5t52.5 -43 t71.5 -28t78 -28.5t71.5 -38.5t52.5 -64.5t20 -100v-123q0 -105 -69 -166t-174 -61q-68 0 -128.5 19t-87.5 38z" />
<glyph unicode="t" horiz-adv-x="512" d="M61 926v98h60v205h117v-205h225v-98h-225v-699q0 -63 38 -100t97 -37q48 0 90 14v-100q-54 -12 -101 -12q-104 0 -172.5 62.5t-68.5 172.5v699h-60z" />
<glyph unicode="u" horiz-adv-x="702" d="M35 926v98h176v-829q0 -49 28.5 -77t71.5 -28q70 0 117 46.5t47 123.5v666h-59v98h176v-926h59v-98h-176v106q-35 -55 -90.5 -84.5t-120.5 -29.5q-72 0 -121 47t-49 129v758h-59z" />
<glyph unicode="v" horiz-adv-x="673" d="M2 926v98h164l168 -915h4l156 817h-58v98h236v-98h-64l-194 -926h-154l-197 926h-61z" />
<glyph unicode="w" horiz-adv-x="1071" d="M2 926v98h164l151 -913h5l137 913h149l137 -913h5l139 815h-60v98h236v-98h-61l-181 -926h-153l-133 903h-5l-135 -903h-153l-183 926h-59z" />
<glyph unicode="x" horiz-adv-x="686" d="M16 0v98h66l184 426l-176 402h-65v98h153l162 -428h4l139 330h-55v98h234v-98h-66l-176 -402l182 -426h68v-98h-156l-170 457h-4l-145 -359h55v-98h-234z" />
<glyph unicode="y" horiz-adv-x="688" d="M35 926v98h176v-829q0 -49 28.5 -77t71.5 -28q70 0 117 46.5t47 123.5v666h-59v98h176v-1257q0 -109 -69.5 -172.5t-174.5 -63.5q-69 0 -131 19t-89 38l-28 19v221h117v-160q51 -39 129 -39q56 0 92.5 37.5t36.5 100.5v339q-35 -55 -90.5 -84.5t-120.5 -29.5 q-72 0 -121 47t-49 129v758h-59z" />
<glyph unicode="z" horiz-adv-x="655" d="M84 0v63l356 863h-262v-228h-94v326h487v-63l-354 -863h260v228h94v-326h-487z" />
<glyph unicode="{" horiz-adv-x="524" d="M53 618v103h21q57 0 95 37t38 100v451q0 109 70.5 172t177.5 63h20v-98h-20q-57 0 -94 -37t-37 -100v-451q0 -125 -103 -190q47 -26 75 -74t28 -111v-465q0 -61 37.5 -97t93.5 -36h20v-98h-20q-105 0 -176.5 62t-71.5 169v465q0 61 -38 98t-95 37h-21z" />
<glyph unicode="|" horiz-adv-x="317" d="M100 -205v1741h117v-1741h-117z" />
<glyph unicode="}" horiz-adv-x="524" d="M53 -115h21q57 0 95 37.5t38 100.5v450q0 128 100 191q-100 56 -100 184v465q-1 61 -39 97t-94 36h-21v98h21q106 0 178 -62.5t72 -168.5v-465q0 -62 37 -98.5t94 -36.5h20v-103h-20q-57 0 -94 -37t-37 -100v-450q0 -109 -71.5 -172.5t-178.5 -63.5h-21v98z" />
<glyph unicode="~" horiz-adv-x="784" d="M84 483q0 85 54 135t136 50q40 0 69 -12t46.5 -29t33 -33.5t36.5 -28.5t49 -12q44 0 74 27.5t30 76.5h88q0 -85 -54 -134.5t-134 -49.5q-47 0 -81.5 18t-52 39.5t-44 39.5t-58.5 18q-44 0 -74 -28t-30 -77h-88z" />
<glyph unicode="&#xa1;" horiz-adv-x="317" d="M100 -410v1057h117v-1057h-117zM100 831v193h117v-193h-117z" />
<glyph unicode="&#xa2;" horiz-adv-x="653" d="M84 219v584q0 91 50.5 149t131.5 72v205h117v-205q54 -5 100.5 -22t66.5 -32l19 -14v-258h-116v197q-49 39 -127 39q-54 0 -89.5 -35.5t-35.5 -95.5v-584q0 -60 35.5 -94.5t89.5 -34.5t90.5 34.5t36.5 94.5v107h116v-107q0 -91 -52.5 -148.5t-133.5 -70.5v-205h-117v205 q-81 12 -131.5 70t-50.5 149z" />
<glyph unicode="&#xa3;" horiz-adv-x="706" d="M53 0v98h84v527h-84v98h84v489q0 106 69.5 168t174.5 62q68 0 128.5 -19t86.5 -38l27 -19v-342h-117v281q-49 38 -125 38q-54 0 -90.5 -35.5t-36.5 -95.5v-489h369v-98h-369v-527h369v-98h-570z" />
<glyph unicode="&#xa4;" d="M39 51l92 234q-47 56 -47 145v162q0 93 53 156l-92 225h123l59 -164q47 18 105 18q51 0 106 -20l60 166h123l-95 -228q56 -62 56 -153v-162q0 -84 -50 -147l95 -232h-123l-60 166q-50 -20 -112 -20q-63 0 -113 20l-57 -166h-123zM201 430q0 -62 37.5 -98.5t93.5 -36.5 q57 0 95 36t38 99v162q0 63 -38 100t-95 37q-56 0 -93.5 -37t-37.5 -100v-162z" />
<glyph unicode="&#xa5;" horiz-adv-x="673" d="M2 1335v99h162l170 -764h4l156 665h-58v99h234v-99h-64l-186 -751h166v-99h-191l-2 -8v-141h193v-98h-193v-238h-117v238h-188v98h188v141l-2 8h-186v99h162l-184 751h-64z" />
<glyph unicode="&#xa6;" horiz-adv-x="317" d="M100 -205v768h117v-768h-117zM100 768v768h117v-768h-117z" />
<glyph unicode="&#xa7;" d="M84 -51h117v-271q6 -5 16.5 -13.5t44.5 -22t70 -13.5q57 0 95 36t38 99v240q0 46 -21 80t-54.5 54.5t-73.5 38t-80.5 39t-74 49.5t-54.5 76t-21 112v256q0 76 43 135q-43 59 -43 151v215q0 107 70.5 169.5t175.5 62.5q70 0 132 -21t89 -42l27 -21v-334h-117v272 q-6 5 -16.5 13t-44.5 21t-70 13q-55 0 -92 -36t-37 -97v-215q0 -47 21 -81t54.5 -54.5t73.5 -38t80.5 -39t74 -49t54.5 -75t21 -111.5v-281q0 -73 -35 -123q35 -61 35 -139v-240q0 -109 -71.5 -171t-178.5 -62q-70 0 -132 21.5t-89 43.5l-27 21v332zM203 453q0 -41 15 -71.5 t44 -52t58 -36.5t71 -34.5t68 -35.5q6 18 6 43v281q0 40 -14.5 69.5t-43.5 50.5t-56.5 35t-70 33t-67.5 33q-10 -27 -10 -59v-256z" />
<glyph unicode="&#xa8;" horiz-adv-x="630" d="M111 1210v191h100v-191h-100zM401 1210v191h103v-191h-103z" />
<glyph unicode="&#xa9;" horiz-adv-x="1456" d="M96 543v346q0 168 85 295.5t227 192.5t317 65t318.5 -65t230 -192.5t86.5 -295.5v-346q0 -127 -50 -232t-137 -174.5t-202 -107t-246 -37.5t-245.5 37.5t-199.5 107t-134.5 174.5t-49.5 232zM213 543q0 -138 69.5 -242t185 -157.5t257.5 -53.5q144 0 260.5 53.5 t187 157.5t70.5 242v346q0 136 -70.5 240.5t-187.5 159t-260 54.5q-218 0 -365 -125t-147 -329v-346zM479 543v346q0 110 70.5 172.5t177.5 62.5t178.5 -62.5t71.5 -172.5v-70h-117v70q0 62 -38.5 99.5t-94.5 37.5t-93.5 -37t-37.5 -100v-346q0 -62 37.5 -98.5t93.5 -36.5 t94.5 36.5t38.5 98.5v71h117v-71q0 -109 -71.5 -171.5t-178.5 -62.5t-177.5 62.5t-70.5 171.5z" />
<glyph unicode="&#xaa;" horiz-adv-x="376" d="M59 1001v99q0 102 115 117l72 8v96q0 27 -16 43t-40 16q-16 0 -30 -4t-20 -8l-7 -4v-96h-70v133q49 39 127 39q54 0 89.5 -32t35.5 -87v-340h27v-59h-96v49q-38 -53 -105 -53q-35 0 -58.5 22.5t-23.5 60.5zM131 1018q0 -20 11.5 -31.5t29.5 -11.5q29 0 51.5 21t22.5 53 v116l-58 -6q-57 -7 -57 -59v-82z" />
<glyph unicode="&#xab;" horiz-adv-x="624" d="M68 512l143 358h121l-146 -358l146 -358h-121zM303 512l146 358h120l-145 -358l145 -358h-120z" />
<glyph unicode="&#xac;" horiz-adv-x="698" d="M68 616v97h565v-316h-117v219h-448z" />
<glyph unicode="&#xad;" horiz-adv-x="450" d="M68 514v96h315v-96h-315z" />
<glyph unicode="&#xae;" horiz-adv-x="1456" d="M96 543v346q0 168 85 295.5t227 192.5t317 65t318.5 -65t230 -192.5t86.5 -295.5v-346q0 -127 -50 -232t-137 -174.5t-202 -107t-246 -37.5t-245.5 37.5t-199.5 107t-134.5 174.5t-49.5 232zM213 543q0 -138 69.5 -242t185 -157.5t257.5 -53.5q144 0 260.5 53.5 t187 157.5t70.5 242v346q0 136 -70.5 240.5t-187.5 159t-260 54.5q-218 0 -365 -125t-147 -329v-346zM492 342v752h247q105 0 171.5 -55.5t66.5 -153.5v-49q0 -71 -36 -118.5t-103 -66.5l163 -309h-112l-154 285h-127v-285h-116zM608 725h131q56 0 88.5 29.5t32.5 81.5v49 q0 52 -32.5 81t-88.5 29h-131v-270z" />
<glyph unicode="&#xaf;" horiz-adv-x="317" d="M-39 1233v98h393v-98h-393z" />
<glyph unicode="&#xb0;" horiz-adv-x="569" d="M96 1202v51q0 87 53 138t134 51q80 0 135 -51.5t55 -137.5v-51q0 -87 -54.5 -136.5t-135.5 -49.5t-134 49.5t-53 136.5zM178 1202q0 -51 30 -79.5t75 -28.5t75.5 29t30.5 79v51q0 51 -30.5 81t-75.5 30q-44 0 -74.5 -30t-30.5 -81v-51z" />
<glyph unicode="&#xb1;" horiz-adv-x="698" d="M68 176v98h565v-98h-565zM68 588v98h231v244h98v-244h236v-98h-236v-244h-98v244h-231z" />
<glyph unicode="&#xb2;" horiz-adv-x="329" d="M51 1264v137q43 33 113 33q49 0 80.5 -28.5t31.5 -76.5v-137q0 -36 -16 -66.5t-38.5 -51.5t-45.5 -40.5t-39 -42.5t-16 -49v-68h155v-55h-223v123q0 36 16 66.5t39 51.5t46 40.5t39 42.5t16 49v137q0 22 -12.5 35.5t-32.5 13.5q-12 0 -23 -3.5t-17 -6.5l-5 -4v-100h-68z " />
<glyph unicode="&#xb3;" horiz-adv-x="331" d="M51 1264v137q43 33 113 33q49 0 80.5 -28.5t31.5 -76.5v-100q0 -33 -15.5 -57t-41.5 -35q28 -11 45 -36t17 -59v-122q0 -48 -33 -76.5t-82 -28.5q-31 0 -59 8.5t-40 16.5l-12 8v137h68v-102q16 -13 43 -13q21 0 34 13.5t13 36.5v139q0 23 -13 36t-34 13h-45v55h43 q21 0 33 13t12 36v117q0 22 -12.5 35.5t-32.5 13.5q-12 0 -23 -3.5t-17 -6.5l-5 -4v-100h-68z" />
<glyph unicode="&#xb4;" horiz-adv-x="555" d="M117 1227l250 211l71 -70l-252 -213z" />
<glyph unicode="&#xb5;" horiz-adv-x="692" d="M35 926v98h176v-829q0 -49 28.5 -77t71.5 -28q70 0 117 46.5t47 123.5v666h-59v98h176v-926h59v-98h-176v94q-53 -96 -166 -96q-65 0 -98 39v-344h-117v1233h-59z" />
<glyph unicode="&#xb6;" horiz-adv-x="929" d="M84 821v377q0 109 71.5 172.5t178.5 63.5h545v-99h-60v-1540h-117v1540h-133v-1540h-116v793h-119q-107 0 -178.5 62t-71.5 171z" />
<glyph unicode="&#xb7;" horiz-adv-x="305" d="M96 442v191h113v-191h-113z" />
<glyph unicode="&#xb8;" horiz-adv-x="282" d="M96 10h90v-284h-90v284z" />
<glyph unicode="&#xb9;" horiz-adv-x="323" d="M49 819v55h80v492l-80 -51v63l80 52h68v-556h77v-55h-225z" />
<glyph unicode="&#xba;" horiz-adv-x="376" d="M59 1034v287q0 54 37 86.5t92 32.5q54 0 90.5 -32.5t36.5 -86.5v-287q0 -54 -36 -85t-91 -31q-56 0 -92.5 31t-36.5 85zM131 1034q0 -27 16 -43t41 -16q24 0 41 16t17 43v287q0 27 -17 43t-41 16q-25 0 -41 -16t-16 -43v-287z" />
<glyph unicode="&#xbb;" horiz-adv-x="624" d="M53 154l148 358l-148 358h123l143 -358l-143 -358h-123zM291 154l147 358l-147 358h123l143 -358l-143 -358h-123z" />
<glyph unicode="&#xbc;" horiz-adv-x="1034" d="M102 819v55h80v492l-80 -51v63l80 52h68v-556h78v-55h-226zM186 0l568 1434h94l-569 -1434h-93zM694 119v55l125 436h103v-436h24v-55h-24v-64h24v-55h-112v55h22v64h-162zM756 174h100v365z" />
<glyph unicode="&#xbd;" horiz-adv-x="1034" d="M111 819v55h79v492l-79 -51v63l79 52h68v-556h78v-55h-225zM186 0l568 1434h94l-569 -1434h-93zM721 444v138q43 32 113 32q49 0 80.5 -28t31.5 -76v-137q0 -36 -16 -66.5t-39 -51.5t-45.5 -40.5t-38.5 -42.5t-16 -49v-68h155v-55h-223v123q0 36 16 66.5t39 51.5t46 40.5 t39 42.5t16 49v137q0 22 -12.5 35.5t-32.5 13.5q-12 0 -23.5 -3.5t-16.5 -7.5l-6 -3v-101h-67z" />
<glyph unicode="&#xbe;" horiz-adv-x="1034" d="M106 1264v137q41 33 111 33q49 0 82 -28.5t33 -76.5v-100q0 -33 -16.5 -57t-43.5 -35q28 -11 45 -36t17 -59v-122q0 -48 -33 -76.5t-82 -28.5q-30 0 -57.5 8.5t-39.5 16.5l-13 8v137h67v-102q18 -13 43 -13q21 0 34 13.5t13 36.5v139q0 23 -13 36t-34 13h-45v55h43 q21 0 34 13t13 36v117q0 22 -13.5 35.5t-33.5 13.5q-12 0 -22.5 -3.5t-15.5 -6.5l-5 -4v-100h-68zM186 0l568 1434h94l-569 -1434h-93zM694 119v55l125 436h103v-436h24v-55h-24v-64h24v-55h-112v55h22v64h-162zM756 174h100v365z" />
<glyph unicode="&#xbf;" horiz-adv-x="657" d="M80 39q0 82 20 135t48 79.5t56 50.5t48 67.5t20 111.5v172h117v-172q0 -82 -20 -135t-48 -79.5t-56 -50.5t-48 -67.5t-20 -111.5v-219q0 -63 39 -100t96 -37q34 0 65 9.5t45 19.5l15 9v279h116v-340q-4 -3 -10.5 -8t-30 -18.5t-49.5 -23.5t-67 -18t-84 -8 q-108 0 -180 63.5t-72 172.5v219zM272 840v192h117v-192h-117z" />
<glyph unicode="&#xc0;" horiz-adv-x="673" d="M-2 0v98h59l189 1237h-49v99h217l198 -1336h64v-98h-168l-55 385h-234l-45 -287h59v-98h-235zM176 1776l70 69l252 -209l-70 -71zM227 483h219l-106 809h-4z" />
<glyph unicode="&#xc1;" horiz-adv-x="673" d="M-2 0v98h59l189 1237h-49v99h217l198 -1336h64v-98h-168l-55 385h-234l-45 -287h59v-98h-235zM176 1636l250 211l72 -69l-252 -213zM227 483h219l-106 809h-4z" />
<glyph unicode="&#xc2;" horiz-adv-x="673" d="M-2 0v98h59l189 1237h-49v99h217l198 -1336h64v-98h-168l-55 385h-234l-45 -287h59v-98h-235zM98 1638l238 189l237 -189l-67 -69l-170 135l-170 -135zM227 483h219l-106 809h-4z" />
<glyph unicode="&#xc3;" horiz-adv-x="673" d="M-2 0v98h59l189 1237h-49v99h217l198 -1336h64v-98h-168l-55 385h-234l-45 -287h59v-98h-235zM88 1585q0 71 43.5 113.5t108.5 42.5q37 0 65 -13.5t41.5 -29.5t35.5 -29.5t48 -13.5q32 0 54 20.5t22 55.5h78q0 -71 -43 -113.5t-107 -42.5q-37 0 -65 13.5t-42.5 29.5 t-36 29.5t-46.5 13.5q-32 0 -54 -20.5t-22 -55.5h-80zM227 483h219l-106 809h-4z" />
<glyph unicode="&#xc4;" horiz-adv-x="673" d="M-2 0v98h59l189 1237h-49v99h217l198 -1336h64v-98h-168l-55 385h-234l-45 -287h59v-98h-235zM139 1620v190h101v-190h-101zM227 483h219l-106 809h-4zM430 1620v190h102v-190h-102z" />
<glyph unicode="&#xc5;" horiz-adv-x="673" d="M-2 0v98h59l189 1237h-49v99h217l198 -1336h64v-98h-168l-55 385h-234l-45 -287h59v-98h-235zM170 1698q0 79 47 124.5t119 45.5t120 -45.5t48 -122.5q0 -79 -48 -122.5t-120 -43.5t-119 43.5t-47 120.5zM227 483h219l-106 809h-4zM248 1698q0 -41 25.5 -66.5t62.5 -25.5 q38 0 64 25t26 67q0 44 -26 70t-64 26q-37 0 -62.5 -26t-25.5 -70z" />
<glyph unicode="&#xc6;" horiz-adv-x="913" d="M0 0v98h63l246 1237h-47v99h572v-410h-101v311h-207v-551h267v-98h-267v-588h207v312h101v-410h-424v385h-174l-60 -287h60v-98h-236zM252 483h158v822h-4z" />
<glyph unicode="&#xc7;" horiz-adv-x="653" d="M84 219v993q0 106 69.5 168t172.5 62q68 0 129 -18.5t87 -37.5l27 -18v-344h-116v281q-49 38 -127 38q-54 0 -89.5 -35.5t-35.5 -95.5v-993q0 -60 35.5 -94.5t89.5 -34.5t90.5 34.5t36.5 94.5v191h116v-191q0 -94 -55.5 -153t-142.5 -70v-270h-90v270q-88 11 -142.5 70 t-54.5 153z" />
<glyph unicode="&#xc8;" horiz-adv-x="647" d="M51 0v98h60v1237h-60v99h516v-410h-100v311h-240v-551h299v-98h-299v-588h240v312h100v-410h-516zM168 1776l70 69l251 -209l-69 -71z" />
<glyph unicode="&#xc9;" horiz-adv-x="647" d="M51 0v98h60v1237h-60v99h516v-410h-100v311h-240v-551h299v-98h-299v-588h240v312h100v-410h-516zM170 1636l250 211l72 -69l-252 -213z" />
<glyph unicode="&#xca;" horiz-adv-x="647" d="M51 0v98h60v1237h-60v99h516v-410h-100v311h-240v-551h299v-98h-299v-588h240v312h100v-410h-516zM92 1638l238 189l237 -189l-67 -69l-170 135l-170 -135z" />
<glyph unicode="&#xcb;" horiz-adv-x="647" d="M51 0v98h60v1237h-60v99h516v-410h-100v311h-240v-551h299v-98h-299v-588h240v312h100v-410h-516zM133 1620v190h100v-190h-100zM424 1620v190h102v-190h-102z" />
<glyph unicode="&#xcc;" horiz-adv-x="337" d="M8 1776l70 69l252 -209l-70 -71zM51 0v98h60v1237h-60v99h236v-99h-60v-1237h60v-98h-236z" />
<glyph unicode="&#xcd;" horiz-adv-x="337" d="M8 1636l250 211l72 -69l-252 -213zM51 0v98h60v1237h-60v99h236v-99h-60v-1237h60v-98h-236z" />
<glyph unicode="&#xce;" horiz-adv-x="337" d="M-70 1638l238 189l238 -189l-68 -69l-170 135l-170 -135zM51 0v98h60v1237h-60v99h236v-99h-60v-1237h60v-98h-236z" />
<glyph unicode="&#xcf;" horiz-adv-x="337" d="M-27 1620v190h101v-190h-101zM51 0v98h60v1237h-60v99h236v-99h-60v-1237h60v-98h-236zM264 1620v190h103v-190h-103z" />
<glyph unicode="&#xd0;" horiz-adv-x="686" d="M51 0v98h60v588h-60v98h60v551h-60v99h301q107 0 178.5 -63.5t71.5 -172.5v-965q0 -109 -71.5 -171t-178.5 -62h-301zM227 98h125q57 0 95 36t38 99v965q0 63 -38 100t-95 37h-125v-551h138v-98h-138v-588z" />
<glyph unicode="&#xd1;" horiz-adv-x="722" d="M51 0v98h60v1237h-60v99h166l277 -1080h6v981h-60v99h232v-99h-60v-1335h-106l-279 1079h-4v-981h60v-98h-232zM113 1585q0 72 43 114t108 42q37 0 65 -13.5t42 -29.5t36 -29.5t48 -13.5q32 0 53.5 20.5t21.5 55.5h78q0 -71 -42.5 -113.5t-106.5 -42.5q-37 0 -65 13.5 t-43 29.5t-36.5 29.5t-46.5 13.5q-32 0 -53.5 -20.5t-21.5 -55.5h-80z" />
<glyph unicode="&#xd2;" d="M84 225v981q0 109 70.5 172.5t177.5 63.5t178.5 -63.5t71.5 -172.5v-981q0 -109 -71.5 -171t-178.5 -62t-177.5 62t-70.5 171zM172 1776l70 69l252 -209l-70 -71zM201 225q0 -62 37.5 -98.5t93.5 -36.5q57 0 95 36t38 99v981q0 63 -38 100t-95 37q-56 0 -93.5 -37 t-37.5 -100v-981z" />
<glyph unicode="&#xd3;" d="M84 225v981q0 109 70.5 172.5t177.5 63.5t178.5 -63.5t71.5 -172.5v-981q0 -109 -71.5 -171t-178.5 -62t-177.5 62t-70.5 171zM172 1636l250 211l72 -69l-252 -213zM201 225q0 -62 37.5 -98.5t93.5 -36.5q57 0 95 36t38 99v981q0 63 -38 100t-95 37q-56 0 -93.5 -37 t-37.5 -100v-981z" />
<glyph unicode="&#xd4;" d="M84 225v981q0 109 70.5 172.5t177.5 63.5t178.5 -63.5t71.5 -172.5v-981q0 -109 -71.5 -171t-178.5 -62t-177.5 62t-70.5 171zM96 1638l238 189l237 -189l-67 -69l-170 135l-170 -135zM201 225q0 -62 37.5 -98.5t93.5 -36.5q57 0 95 36t38 99v981q0 63 -38 100t-95 37 q-56 0 -93.5 -37t-37.5 -100v-981z" />
<glyph unicode="&#xd5;" d="M84 225v981q0 109 70.5 172.5t177.5 63.5t178.5 -63.5t71.5 -172.5v-981q0 -109 -71.5 -171t-178.5 -62t-177.5 62t-70.5 171zM84 1585q0 71 43.5 113.5t108.5 42.5q37 0 65 -13.5t41.5 -29.5t35.5 -29.5t48 -13.5q32 0 54 20.5t22 55.5h78q0 -71 -43 -113.5t-107 -42.5 q-37 0 -65 13.5t-42.5 29.5t-36 29.5t-46.5 13.5q-32 0 -54 -20.5t-22 -55.5h-80zM201 225q0 -62 37.5 -98.5t93.5 -36.5q57 0 95 36t38 99v981q0 63 -38 100t-95 37q-56 0 -93.5 -37t-37.5 -100v-981z" />
<glyph unicode="&#xd6;" d="M84 225v981q0 109 70.5 172.5t177.5 63.5t178.5 -63.5t71.5 -172.5v-981q0 -109 -71.5 -171t-178.5 -62t-177.5 62t-70.5 171zM137 1620v190h101v-190h-101zM201 225q0 -62 37.5 -98.5t93.5 -36.5q57 0 95 36t38 99v981q0 63 -38 100t-95 37q-56 0 -93.5 -37t-37.5 -100 v-981zM428 1620v190h102v-190h-102z" />
<glyph unicode="&#xd7;" horiz-adv-x="698" d="M61 420l220 217l-220 217l72 70l215 -217l219 217l68 -68l-217 -219l219 -219l-70 -68l-219 217l-217 -217z" />
<glyph unicode="&#xd8;" d="M68 0l36 119q-20 44 -20 106v981q0 109 70.5 172.5t177.5 63.5q104 0 176 -62l16 54h74l-39 -121q23 -51 23 -107v-981q0 -109 -71.5 -171t-178.5 -62q-106 0 -174 59l-17 -51h-73zM201 418l260 819q-9 50 -44.5 78t-84.5 28q-56 0 -93.5 -37t-37.5 -100v-788zM203 195 q9 -50 44.5 -77.5t84.5 -27.5q57 0 95 36t38 99v791z" />
<glyph unicode="&#xd9;" horiz-adv-x="686" d="M35 1335v99h176v-1209q0 -62 37.5 -98.5t93.5 -36.5q57 0 95 36t38 99v1110h-59v99h235v-99h-59v-1110q0 -109 -71.5 -171t-178.5 -62t-177.5 62t-70.5 171v1110h-59zM182 1776l70 69l252 -209l-70 -71z" />
<glyph unicode="&#xda;" horiz-adv-x="686" d="M35 1335v99h176v-1209q0 -62 37.5 -98.5t93.5 -36.5q57 0 95 36t38 99v1110h-59v99h235v-99h-59v-1110q0 -109 -71.5 -171t-178.5 -62t-177.5 62t-70.5 171v1110h-59zM182 1636l250 211l72 -69l-252 -213z" />
<glyph unicode="&#xdb;" horiz-adv-x="686" d="M35 1335v99h176v-1209q0 -62 37.5 -98.5t93.5 -36.5q57 0 95 36t38 99v1110h-59v99h235v-99h-59v-1110q0 -109 -71.5 -171t-178.5 -62t-177.5 62t-70.5 171v1110h-59zM106 1638l238 189l238 -189l-68 -69l-170 135l-170 -135z" />
<glyph unicode="&#xdc;" horiz-adv-x="686" d="M35 1335v99h176v-1209q0 -62 37.5 -98.5t93.5 -36.5q57 0 95 36t38 99v1110h-59v99h235v-99h-59v-1110q0 -109 -71.5 -171t-178.5 -62t-177.5 62t-70.5 171v1110h-59zM147 1620v190h101v-190h-101zM438 1620v190h103v-190h-103z" />
<glyph unicode="&#xdd;" horiz-adv-x="673" d="M2 1335v99h162l170 -764h4l156 665h-58v99h234v-99h-64l-213 -858v-379h60v-98h-236v98h59v379l-210 858h-64zM176 1636l250 211l72 -69l-252 -213z" />
<glyph unicode="&#xde;" horiz-adv-x="647" d="M51 0v98h60v1237h-60v99h176v-250h86q107 0 178.5 -62.5t71.5 -171.5v-465q0 -109 -71.5 -172t-178.5 -63h-86v-152h60v-98h-236zM227 348h86q57 0 95 37t38 100v465q0 63 -38 99t-95 36h-86v-737z" />
<glyph unicode="&#xdf;" horiz-adv-x="761" d="M35 0v98h59v828h-59v98h59v231q0 111 72.5 174.5t181.5 63.5t182.5 -63.5t73.5 -174.5v-159q0 -43 -12.5 -76t-31.5 -50.5t-41 -35.5t-41 -32.5t-31.5 -41t-12.5 -61.5v-86q0 -55 38 -87t92 -49t107.5 -37.5t91.5 -69.5t38 -128v-123q0 -105 -70 -166t-174 -61 q-68 0 -129 17.5t-88 35.5l-27 18v263h117v-199q51 -37 127 -37q54 0 90.5 34.5t36.5 94.5v123q0 55 -38 87t-92 49t-107.5 37.5t-91.5 69.5t-38 128v102q0 48 17.5 81t42 51.5t49 36.5t42 49.5t17.5 78.5v143q0 64 -39.5 102t-97.5 38q-59 0 -98 -38t-39 -102v-1255h-176z " />
<glyph unicode="&#xe0;" horiz-adv-x="675" d="M84 162v190q0 106 63 163.5t166 70.5l152 18v195q0 61 -36.5 98t-92.5 37q-35 0 -67 -10t-47 -20l-15 -9v-197h-117v258q4 3 11 8t31 18.5t50.5 23.5t68 18t85.5 8q107 0 176.5 -62t69.5 -171v-701h59v-98h-176v106q-34 -55 -93.5 -84.5t-123.5 -29.5q-70 0 -117 45.5 t-47 124.5zM172 1366l70 70l252 -209l-70 -72zM201 188q0 -46 27 -72t67 -26q67 0 118.5 47t51.5 123v246l-131 -17q-60 -8 -96.5 -42t-36.5 -95v-164z" />
<glyph unicode="&#xe1;" horiz-adv-x="675" d="M84 162v190q0 106 63 163.5t166 70.5l152 18v195q0 61 -36.5 98t-92.5 37q-35 0 -67 -10t-47 -20l-15 -9v-197h-117v258q4 3 11 8t31 18.5t50.5 23.5t68 18t85.5 8q107 0 176.5 -62t69.5 -171v-701h59v-98h-176v106q-34 -55 -93.5 -84.5t-123.5 -29.5q-70 0 -117 45.5 t-47 124.5zM172 1227l250 211l72 -70l-252 -213zM201 188q0 -46 27 -72t67 -26q67 0 118.5 47t51.5 123v246l-131 -17q-60 -8 -96.5 -42t-36.5 -95v-164z" />
<glyph unicode="&#xe2;" horiz-adv-x="675" d="M84 162v190q0 106 63 163.5t166 70.5l152 18v195q0 61 -36.5 98t-92.5 37q-35 0 -67 -10t-47 -20l-15 -9v-197h-117v258q4 3 11 8t31 18.5t50.5 23.5t68 18t85.5 8q107 0 176.5 -62t69.5 -171v-701h59v-98h-176v106q-34 -55 -93.5 -84.5t-123.5 -29.5q-70 0 -117 45.5 t-47 124.5zM96 1229l238 188l237 -188l-67 -70l-170 135l-170 -135zM201 188q0 -46 27 -72t67 -26q67 0 118.5 47t51.5 123v246l-131 -17q-60 -8 -96.5 -42t-36.5 -95v-164z" />
<glyph unicode="&#xe3;" horiz-adv-x="675" d="M84 162v190q0 106 63 163.5t166 70.5l152 18v195q0 61 -36.5 98t-92.5 37q-35 0 -67 -10t-47 -20l-15 -9v-197h-117v258q4 3 11 8t31 18.5t50.5 23.5t68 18t85.5 8q107 0 176.5 -62t69.5 -171v-701h59v-98h-176v106q-34 -55 -93.5 -84.5t-123.5 -29.5q-70 0 -117 45.5 t-47 124.5zM84 1176q0 71 43.5 113t108.5 42q37 0 65 -13.5t41.5 -29.5t35.5 -29.5t48 -13.5q32 0 54 20.5t22 55.5h78q0 -71 -43 -113.5t-107 -42.5q-37 0 -65 13.5t-42.5 29.5t-36 29.5t-46.5 13.5q-32 0 -54 -20t-22 -55h-80zM201 188q0 -46 27 -72t67 -26q67 0 118.5 47 t51.5 123v246l-131 -17q-60 -8 -96.5 -42t-36.5 -95v-164z" />
<glyph unicode="&#xe4;" horiz-adv-x="675" d="M84 162v190q0 106 63 163.5t166 70.5l152 18v195q0 61 -36.5 98t-92.5 37q-35 0 -67 -10t-47 -20l-15 -9v-197h-117v258q4 3 11 8t31 18.5t50.5 23.5t68 18t85.5 8q107 0 176.5 -62t69.5 -171v-701h59v-98h-176v106q-34 -55 -93.5 -84.5t-123.5 -29.5q-70 0 -117 45.5 t-47 124.5zM137 1210v191h101v-191h-101zM201 188q0 -46 27 -72t67 -26q67 0 118.5 47t51.5 123v246l-131 -17q-60 -8 -96.5 -42t-36.5 -95v-164zM428 1210v191h102v-191h-102z" />
<glyph unicode="&#xe5;" horiz-adv-x="675" d="M84 162v190q0 106 63 163.5t166 70.5l152 18v195q0 61 -36.5 98t-92.5 37q-35 0 -67 -10t-47 -20l-15 -9v-197h-117v258q4 3 11 8t31 18.5t50.5 23.5t68 18t85.5 8q107 0 176.5 -62t69.5 -171v-701h59v-98h-176v106q-34 -55 -93.5 -84.5t-123.5 -29.5q-70 0 -117 45.5 t-47 124.5zM166 1288q0 79 47 124.5t119 45.5t120 -45.5t48 -122.5q0 -79 -48 -122.5t-120 -43.5t-119 43.5t-47 120.5zM201 188q0 -46 27 -72t67 -26q67 0 118.5 47t51.5 123v246l-131 -17q-60 -8 -96.5 -42t-36.5 -95v-164zM244 1288q0 -41 25.5 -66.5t62.5 -25.5 q38 0 64 25t26 67q0 44 -26 70t-64 26q-37 0 -62.5 -26t-25.5 -70z" />
<glyph unicode="&#xe6;" horiz-adv-x="1046" d="M84 162v157q0 110 64.5 174t164.5 72l152 13v221q0 62 -37.5 98.5t-93.5 36.5q-36 0 -69.5 -10t-48.5 -20l-15 -9v-197h-117v258q4 3 11 8t31.5 18.5t51.5 23.5t69.5 18t86.5 8q63 0 113.5 -28t76.5 -80q24 51 75.5 79.5t113.5 28.5q108 0 180 -63t72 -172v-316h-383 v-256q0 -62 37.5 -98.5t93.5 -36.5q58 0 96.5 36.5t38.5 98.5v101h117v-101q0 -109 -71.5 -171t-180.5 -62q-78 0 -138 35t-86 98q-85 -133 -241 -133q-70 0 -117 45.5t-47 124.5zM201 188q0 -46 27 -72t67 -26q67 0 118.5 47t51.5 123v217l-131 -10q-57 -5 -95 -45 t-38 -103v-131zM582 580h266v217q0 67 -38 102t-97 35q-57 0 -94 -35t-37 -102v-217z" />
<glyph unicode="&#xe7;" horiz-adv-x="653" d="M84 219v584q0 105 69.5 167t172.5 62q68 0 129 -19t87 -38l27 -19v-258h-116v197q-49 39 -127 39q-54 0 -89.5 -35.5t-35.5 -95.5v-584q0 -60 35.5 -94.5t89.5 -34.5t90.5 34.5t36.5 94.5v107h116v-107q0 -94 -55.5 -153t-142.5 -70v-270h-90v270q-88 11 -142.5 70 t-54.5 153z" />
<glyph unicode="&#xe8;" d="M84 225v572q0 109 70.5 172t177.5 63t178.5 -63t71.5 -172v-322h-381v-250q0 -62 37.5 -98.5t93.5 -36.5q57 0 95 36t38 99v101h117v-101q0 -109 -71.5 -171t-178.5 -62t-177.5 62t-70.5 171zM172 1366l70 70l252 -209l-70 -72zM201 573h264v224q0 67 -37 102t-96 35 q-57 0 -94 -35t-37 -102v-224z" />
<glyph unicode="&#xe9;" d="M84 225v572q0 109 70.5 172t177.5 63t178.5 -63t71.5 -172v-322h-381v-250q0 -62 37.5 -98.5t93.5 -36.5q57 0 95 36t38 99v101h117v-101q0 -109 -71.5 -171t-178.5 -62t-177.5 62t-70.5 171zM172 1227l250 211l72 -70l-252 -213zM201 573h264v224q0 67 -37 102t-96 35 q-57 0 -94 -35t-37 -102v-224z" />
<glyph unicode="&#xea;" d="M84 225v572q0 109 70.5 172t177.5 63t178.5 -63t71.5 -172v-322h-381v-250q0 -62 37.5 -98.5t93.5 -36.5q57 0 95 36t38 99v101h117v-101q0 -109 -71.5 -171t-178.5 -62t-177.5 62t-70.5 171zM96 1229l238 188l237 -188l-67 -70l-170 135l-170 -135zM201 573h264v224 q0 67 -37 102t-96 35q-57 0 -94 -35t-37 -102v-224z" />
<glyph unicode="&#xeb;" d="M84 225v572q0 109 70.5 172t177.5 63t178.5 -63t71.5 -172v-322h-381v-250q0 -62 37.5 -98.5t93.5 -36.5q57 0 95 36t38 99v101h117v-101q0 -109 -71.5 -171t-178.5 -62t-177.5 62t-70.5 171zM137 1210v191h101v-191h-101zM201 573h264v224q0 67 -37 102t-96 35 q-57 0 -94 -35t-37 -102v-224zM428 1210v191h102v-191h-102z" />
<glyph unicode="&#xec;" horiz-adv-x="337" d="M8 1366l70 70l252 -209l-70 -72zM51 0v98h60v828h-60v98h176v-926h60v-98h-236z" />
<glyph unicode="&#xed;" horiz-adv-x="337" d="M8 1227l250 211l72 -70l-252 -213zM51 0v98h60v828h-60v98h176v-926h60v-98h-236z" />
<glyph unicode="&#xee;" horiz-adv-x="337" d="M-70 1229l238 188l238 -188l-68 -70l-170 135l-170 -135zM51 0v98h60v828h-60v98h176v-926h60v-98h-236z" />
<glyph unicode="&#xef;" horiz-adv-x="337" d="M-27 1210v191h101v-191h-101zM51 0v98h60v828h-60v98h176v-926h60v-98h-236zM264 1210v191h103v-191h-103z" />
<glyph unicode="&#xf0;" d="M84 225v631q0 82 49 129t121 47q65 0 120.5 -29.5t90.5 -84.5v157q0 103 -78 195l-104 -105l-62 62l105 104q-39 33 -85.5 61t-72.5 40l-27 12l49 49q101 -28 201 -96l98 98l62 -61l-92 -93q123 -119 123 -266v-850q0 -109 -70.5 -171t-177.5 -62t-178.5 62t-71.5 171z M201 225q0 -63 38 -99t95 -36q56 0 93.5 36.5t37.5 98.5v539q0 77 -47 123.5t-117 46.5q-43 0 -71.5 -28.5t-28.5 -76.5v-604z" />
<glyph unicode="&#xf1;" horiz-adv-x="702" d="M51 0v98h60v828h-60v98h176v-106q37 55 91.5 84.5t119.5 29.5q72 0 121 -47t49 -129v-758h60v-98h-176v829q0 48 -29 76.5t-72 28.5q-70 0 -117 -46.5t-47 -123.5v-666h60v-98h-236zM102 1176q0 71 43.5 113t108.5 42q37 0 65 -13.5t41.5 -29.5t35.5 -29.5t48 -13.5 q32 0 54 20.5t22 55.5h78q0 -71 -42.5 -113.5t-106.5 -42.5q-37 0 -65 13.5t-43 29.5t-36.5 29.5t-46.5 13.5q-32 0 -54 -20t-22 -55h-80z" />
<glyph unicode="&#xf2;" d="M84 225v572q0 109 70.5 172t177.5 63t178.5 -63t71.5 -172v-572q0 -109 -71.5 -171t-178.5 -62t-177.5 62t-70.5 171zM172 1366l70 70l252 -209l-70 -72zM201 225q0 -62 37.5 -98.5t93.5 -36.5q57 0 95 36t38 99v572q0 63 -38 100t-95 37q-56 0 -93.5 -37t-37.5 -100 v-572z" />
<glyph unicode="&#xf3;" d="M84 225v572q0 109 70.5 172t177.5 63t178.5 -63t71.5 -172v-572q0 -109 -71.5 -171t-178.5 -62t-177.5 62t-70.5 171zM172 1227l250 211l72 -70l-252 -213zM201 225q0 -62 37.5 -98.5t93.5 -36.5q57 0 95 36t38 99v572q0 63 -38 100t-95 37q-56 0 -93.5 -37t-37.5 -100 v-572z" />
<glyph unicode="&#xf4;" d="M84 225v572q0 109 70.5 172t177.5 63t178.5 -63t71.5 -172v-572q0 -109 -71.5 -171t-178.5 -62t-177.5 62t-70.5 171zM96 1229l238 188l237 -188l-67 -70l-170 135l-170 -135zM201 225q0 -62 37.5 -98.5t93.5 -36.5q57 0 95 36t38 99v572q0 63 -38 100t-95 37 q-56 0 -93.5 -37t-37.5 -100v-572z" />
<glyph unicode="&#xf5;" d="M84 225v572q0 109 70.5 172t177.5 63t178.5 -63t71.5 -172v-572q0 -109 -71.5 -171t-178.5 -62t-177.5 62t-70.5 171zM84 1176q0 71 43.5 113t108.5 42q37 0 65 -13.5t41.5 -29.5t35.5 -29.5t48 -13.5q32 0 54 20.5t22 55.5h78q0 -71 -43 -113.5t-107 -42.5 q-37 0 -65 13.5t-42.5 29.5t-36 29.5t-46.5 13.5q-32 0 -54 -20t-22 -55h-80zM201 225q0 -62 37.5 -98.5t93.5 -36.5q57 0 95 36t38 99v572q0 63 -38 100t-95 37q-56 0 -93.5 -37t-37.5 -100v-572z" />
<glyph unicode="&#xf6;" d="M84 225v572q0 109 70.5 172t177.5 63t178.5 -63t71.5 -172v-572q0 -109 -71.5 -171t-178.5 -62t-177.5 62t-70.5 171zM137 1210v191h101v-191h-101zM201 225q0 -62 37.5 -98.5t93.5 -36.5q57 0 95 36t38 99v572q0 63 -38 100t-95 37q-56 0 -93.5 -37t-37.5 -100v-572z M428 1210v191h102v-191h-102z" />
<glyph unicode="&#xf7;" horiz-adv-x="698" d="M68 514v96h565v-96h-565zM293 166v190h113v-190h-113zM293 768v190h113v-190h-113z" />
<glyph unicode="&#xf8;" d="M68 0l45 104q-29 53 -29 121v572q0 109 70.5 172t177.5 63q101 0 170 -57l22 49h74l-47 -106q31 -57 31 -121v-572q0 -109 -71.5 -171t-178.5 -62q-103 0 -170 55l-21 -47h-73zM201 299l250 561q-15 35 -47.5 54.5t-71.5 19.5q-56 0 -93.5 -37t-37.5 -100v-498zM213 160 q36 -70 119 -70q57 0 95 36t38 99v500z" />
<glyph unicode="&#xf9;" horiz-adv-x="702" d="M35 926v98h176v-829q0 -49 28.5 -77t71.5 -28q70 0 117 46.5t47 123.5v666h-59v98h176v-926h59v-98h-176v106q-35 -55 -90.5 -84.5t-120.5 -29.5q-72 0 -121 47t-49 129v758h-59zM190 1366l70 70l252 -209l-70 -72z" />
<glyph unicode="&#xfa;" horiz-adv-x="702" d="M35 926v98h176v-829q0 -49 28.5 -77t71.5 -28q70 0 117 46.5t47 123.5v666h-59v98h176v-926h59v-98h-176v106q-35 -55 -90.5 -84.5t-120.5 -29.5q-72 0 -121 47t-49 129v758h-59zM190 1227l250 211l72 -70l-252 -213z" />
<glyph unicode="&#xfb;" horiz-adv-x="702" d="M35 926v98h176v-829q0 -49 28.5 -77t71.5 -28q70 0 117 46.5t47 123.5v666h-59v98h176v-926h59v-98h-176v106q-35 -55 -90.5 -84.5t-120.5 -29.5q-72 0 -121 47t-49 129v758h-59zM113 1229l237 188l238 -188l-68 -70l-170 135l-170 -135z" />
<glyph unicode="&#xfc;" horiz-adv-x="702" d="M35 926v98h176v-829q0 -49 28.5 -77t71.5 -28q70 0 117 46.5t47 123.5v666h-59v98h176v-926h59v-98h-176v106q-35 -55 -90.5 -84.5t-120.5 -29.5q-72 0 -121 47t-49 129v758h-59zM154 1210v191h100v-191h-100zM444 1210v191h103v-191h-103z" />
<glyph unicode="&#xfd;" horiz-adv-x="688" d="M35 926v98h176v-829q0 -49 28.5 -77t71.5 -28q70 0 117 46.5t47 123.5v666h-59v98h176v-1257q0 -109 -69.5 -172.5t-174.5 -63.5q-69 0 -131 19t-89 38l-28 19v221h117v-160q51 -39 129 -39q56 0 92.5 37.5t36.5 100.5v339q-35 -55 -90.5 -84.5t-120.5 -29.5 q-72 0 -121 47t-49 129v758h-59zM188 1227l250 211l72 -70l-252 -213z" />
<glyph unicode="&#xfe;" horiz-adv-x="681" d="M41 -311h59v1697h-59v99h176v-567q37 55 91.5 84.5t119.5 29.5q72 0 121 -47t49 -129v-631q0 -109 -64.5 -171t-162.5 -62q-90 0 -154 35v-338h59v-99h-235v99zM217 129q51 -39 131 -39q57 0 95 36t38 99v604q0 48 -28.5 76.5t-71.5 28.5q-70 0 -117 -46.5t-47 -123.5 v-635z" />
<glyph unicode="&#xff;" horiz-adv-x="688" d="M35 926v98h176v-829q0 -49 28.5 -77t71.5 -28q70 0 117 46.5t47 123.5v666h-59v98h176v-1257q0 -109 -69.5 -172.5t-174.5 -63.5q-69 0 -131 19t-89 38l-28 19v221h117v-160q51 -39 129 -39q56 0 92.5 37.5t36.5 100.5v339q-35 -55 -90.5 -84.5t-120.5 -29.5 q-72 0 -121 47t-49 129v758h-59zM154 1210v191h100v-191h-100zM444 1210v191h103v-191h-103z" />
<glyph unicode="&#x100;" horiz-adv-x="673" d="M-2 0v98h59l189 1237h-49v99h217l198 -1336h64v-98h-168l-55 385h-234l-45 -287h59v-98h-235zM139 1642v99h393v-99h-393zM227 483h219l-106 809h-4z" />
<glyph unicode="&#x101;" horiz-adv-x="675" d="M84 162v190q0 106 63 163.5t166 70.5l152 18v195q0 61 -36.5 98t-92.5 37q-35 0 -67 -10t-47 -20l-15 -9v-197h-117v258q4 3 11 8t31 18.5t50.5 23.5t68 18t85.5 8q107 0 176.5 -62t69.5 -171v-701h59v-98h-176v106q-34 -55 -93.5 -84.5t-123.5 -29.5q-70 0 -117 45.5 t-47 124.5zM135 1233v98h393v-98h-393zM201 188q0 -46 27 -72t67 -26q67 0 118.5 47t51.5 123v246l-131 -17q-60 -8 -96.5 -42t-36.5 -95v-164z" />
<glyph unicode="&#x102;" horiz-adv-x="673" d="M-2 0v98h59l189 1237h-49v99h217l198 -1336h64v-98h-168l-55 385h-234l-45 -287h59v-98h-235zM143 1747h86q0 -52 30.5 -82.5t76.5 -30.5t78 30.5t32 82.5h84q0 -86 -55.5 -137t-138.5 -51q-82 0 -137.5 50.5t-55.5 137.5zM227 483h219l-106 809h-4z" />
<glyph unicode="&#x103;" horiz-adv-x="675" d="M84 162v190q0 106 63 163.5t166 70.5l152 18v195q0 61 -36.5 98t-92.5 37q-35 0 -67 -10t-47 -20l-15 -9v-197h-117v258q4 3 11 8t31 18.5t50.5 23.5t68 18t85.5 8q107 0 176.5 -62t69.5 -171v-701h59v-98h-176v106q-34 -55 -93.5 -84.5t-123.5 -29.5q-70 0 -117 45.5 t-47 124.5zM139 1337h86q0 -52 30.5 -82t76.5 -30t78 30t32 82h84q0 -86 -55.5 -137t-138.5 -51q-82 0 -137.5 50.5t-55.5 137.5zM201 188q0 -46 27 -72t67 -26q67 0 118.5 47t51.5 123v246l-131 -17q-60 -8 -96.5 -42t-36.5 -95v-164z" />
<glyph unicode="&#x104;" horiz-adv-x="673" d="M-2 0v98h59l189 1237h-49v99h217l198 -1336h64v-98h-82v-70q0 -51 30.5 -85.5t82.5 -34.5v-74q-91 0 -145 56t-54 138v70l-55 385h-234l-45 -287h59v-98h-235zM227 483h219l-106 809h-4z" />
<glyph unicode="&#x105;" horiz-adv-x="675" d="M84 162v190q0 106 63 163.5t166 70.5l152 18v195q0 61 -36.5 98t-92.5 37q-35 0 -67 -10t-47 -20l-15 -9v-197h-117v258q4 3 11 8t31 18.5t50.5 23.5t68 18t85.5 8q107 0 176.5 -62t69.5 -171v-701h59v-98h-90v-70q0 -51 30.5 -85.5t82.5 -34.5v-74q-91 0 -145 56 t-54 138v176q-34 -55 -93.5 -84.5t-123.5 -29.5q-70 0 -117 45.5t-47 124.5zM201 188q0 -46 27 -72t67 -26q67 0 118.5 47t51.5 123v246l-131 -17q-60 -8 -96.5 -42t-36.5 -95v-164z" />
<glyph unicode="&#x106;" horiz-adv-x="653" d="M84 219v993q0 106 69.5 168t172.5 62q68 0 129 -18.5t87 -37.5l27 -18v-344h-116v281q-49 38 -127 38q-54 0 -89.5 -35.5t-35.5 -95.5v-993q0 -60 35.5 -94.5t89.5 -34.5t90.5 34.5t36.5 94.5v191h116v-191q0 -105 -69.5 -166t-173.5 -61t-173 61t-69 166zM166 1636 l250 211l71 -69l-251 -213z" />
<glyph unicode="&#x107;" horiz-adv-x="653" d="M84 219v584q0 105 69.5 167t172.5 62q68 0 129 -19t87 -38l27 -19v-258h-116v197q-49 39 -127 39q-54 0 -89.5 -35.5t-35.5 -95.5v-584q0 -60 35.5 -94.5t89.5 -34.5t90.5 34.5t36.5 94.5v107h116v-107q0 -105 -69.5 -166t-173.5 -61t-173 61t-69 166zM166 1227l250 211 l71 -70l-251 -213z" />
<glyph unicode="&#x108;" horiz-adv-x="653" d="M84 219v993q0 106 69.5 168t172.5 62q68 0 129 -18.5t87 -37.5l27 -18v-344h-116v281q-49 38 -127 38q-54 0 -89.5 -35.5t-35.5 -95.5v-993q0 -60 35.5 -94.5t89.5 -34.5t90.5 34.5t36.5 94.5v191h116v-191q0 -105 -69.5 -166t-173.5 -61t-173 61t-69 166zM88 1638 l238 189l237 -189l-67 -69l-170 135l-170 -135z" />
<glyph unicode="&#x109;" horiz-adv-x="653" d="M84 219v584q0 105 69.5 167t172.5 62q68 0 129 -19t87 -38l27 -19v-258h-116v197q-49 39 -127 39q-54 0 -89.5 -35.5t-35.5 -95.5v-584q0 -60 35.5 -94.5t89.5 -34.5t90.5 34.5t36.5 94.5v107h116v-107q0 -105 -69.5 -166t-173.5 -61t-173 61t-69 166zM88 1229l238 188 l237 -188l-67 -70l-170 135l-170 -135z" />
<glyph unicode="&#x10a;" horiz-adv-x="653" d="M84 219v993q0 106 69.5 168t172.5 62q68 0 129 -18.5t87 -37.5l27 -18v-344h-116v281q-49 38 -127 38q-54 0 -89.5 -35.5t-35.5 -95.5v-993q0 -60 35.5 -94.5t89.5 -34.5t90.5 34.5t36.5 94.5v191h116v-191q0 -105 -69.5 -166t-173.5 -61t-173 61t-69 166zM266 1651v192 h117v-192h-117z" />
<glyph unicode="&#x10b;" horiz-adv-x="653" d="M84 219v584q0 105 69.5 167t172.5 62q68 0 129 -19t87 -38l27 -19v-258h-116v197q-49 39 -127 39q-54 0 -89.5 -35.5t-35.5 -95.5v-584q0 -60 35.5 -94.5t89.5 -34.5t90.5 34.5t36.5 94.5v107h116v-107q0 -105 -69.5 -166t-173.5 -61t-173 61t-69 166zM266 1241v193h117 v-193h-117z" />
<glyph unicode="&#x10c;" horiz-adv-x="653" d="M84 219v993q0 106 69.5 168t172.5 62q68 0 129 -18.5t87 -37.5l27 -18v-344h-116v281q-49 38 -127 38q-54 0 -89.5 -35.5t-35.5 -95.5v-993q0 -60 35.5 -94.5t89.5 -34.5t90.5 34.5t36.5 94.5v191h116v-191q0 -105 -69.5 -166t-173.5 -61t-173 61t-69 166zM88 1757l68 68 l170 -135l170 135l67 -68l-237 -188z" />
<glyph unicode="&#x10d;" horiz-adv-x="653" d="M84 219v584q0 105 69.5 167t172.5 62q68 0 129 -19t87 -38l27 -19v-258h-116v197q-49 39 -127 39q-54 0 -89.5 -35.5t-35.5 -95.5v-584q0 -60 35.5 -94.5t89.5 -34.5t90.5 34.5t36.5 94.5v107h116v-107q0 -105 -69.5 -166t-173.5 -61t-173 61t-69 166zM88 1348l68 67 l170 -135l170 135l67 -67l-237 -189z" />
<glyph unicode="&#x10e;" horiz-adv-x="686" d="M51 0v98h60v1237h-60v99h301q107 0 178.5 -63.5t71.5 -172.5v-965q0 -109 -71.5 -171t-178.5 -62h-301zM111 1757l67 68l170 -135l170 135l68 -68l-238 -188zM227 98h125q57 0 95 36t38 99v965q0 63 -38 100t-95 37h-125v-1237z" />
<glyph unicode="&#x10f;" horiz-adv-x="958" d="M84 168v631q0 109 65 171t164 62q88 0 152 -35v389h-59v99h176v-1387h59v-98h-176v106q-35 -55 -90.5 -84.5t-120.5 -29.5q-72 0 -121 47t-49 129zM201 195q0 -49 28.5 -77t71.5 -28q70 0 117 46.5t47 123.5v635q-51 39 -131 39q-57 0 -95 -36t-38 -99v-604zM682 1044 q6 15 15.5 40t25.5 91t16 117v193h113v-193q0 -51 -18 -113t-36 -99l-18 -36h-98z" />
<glyph unicode="&#x110;" horiz-adv-x="686" d="M51 0v98h60v588h-60v98h60v551h-60v99h301q107 0 178.5 -63.5t71.5 -172.5v-965q0 -109 -71.5 -171t-178.5 -62h-301zM227 98h125q57 0 95 36t38 99v965q0 63 -38 100t-95 37h-125v-551h138v-98h-138v-588z" />
<glyph unicode="&#x111;" horiz-adv-x="692" d="M84 168v631q0 109 65 171t164 62q88 0 152 -35v224h-291v98h291v166h117v-166h47v-98h-47v-1123h59v-98h-176v106q-35 -55 -90.5 -84.5t-120.5 -29.5q-72 0 -121 47t-49 129zM201 195q0 -49 28.5 -77t71.5 -28q70 0 117 46.5t47 123.5v635q-51 39 -131 39q-57 0 -95 -36 t-38 -99v-604z" />
<glyph unicode="&#x112;" horiz-adv-x="647" d="M51 0v98h60v1237h-60v99h516v-410h-100v311h-240v-551h299v-98h-299v-588h240v312h100v-410h-516zM131 1642v99h393v-99h-393z" />
<glyph unicode="&#x113;" d="M84 225v572q0 109 70.5 172t177.5 63t178.5 -63t71.5 -172v-322h-381v-250q0 -62 37.5 -98.5t93.5 -36.5q57 0 95 36t38 99v101h117v-101q0 -109 -71.5 -171t-178.5 -62t-177.5 62t-70.5 171zM135 1233v98h393v-98h-393zM201 573h264v224q0 67 -37 102t-96 35 q-57 0 -94 -35t-37 -102v-224z" />
<glyph unicode="&#x114;" horiz-adv-x="647" d="M51 0v98h60v1237h-60v99h516v-410h-100v311h-240v-551h299v-98h-299v-588h240v312h100v-410h-516zM135 1747h86q0 -52 30.5 -82.5t76.5 -30.5t78 30.5t32 82.5h84q0 -86 -55.5 -137t-138.5 -51q-82 0 -137.5 50.5t-55.5 137.5z" />
<glyph unicode="&#x115;" d="M84 225v572q0 109 70.5 172t177.5 63t178.5 -63t71.5 -172v-322h-381v-250q0 -62 37.5 -98.5t93.5 -36.5q57 0 95 36t38 99v101h117v-101q0 -109 -71.5 -171t-178.5 -62t-177.5 62t-70.5 171zM139 1337h86q0 -52 30.5 -82t76.5 -30t78 30t32 82h84q0 -86 -55.5 -137 t-138.5 -51q-82 0 -137.5 50.5t-55.5 137.5zM201 573h264v224q0 67 -37 102t-96 35q-57 0 -94 -35t-37 -102v-224z" />
<glyph unicode="&#x116;" horiz-adv-x="647" d="M51 0v98h60v1237h-60v99h516v-410h-100v311h-240v-551h299v-98h-299v-588h240v312h100v-410h-516zM270 1651v192h117v-192h-117z" />
<glyph unicode="&#x117;" d="M84 225v572q0 109 70.5 172t177.5 63t178.5 -63t71.5 -172v-322h-381v-250q0 -62 37.5 -98.5t93.5 -36.5q57 0 95 36t38 99v101h117v-101q0 -109 -71.5 -171t-178.5 -62t-177.5 62t-70.5 171zM201 573h264v224q0 67 -37 102t-96 35q-57 0 -94 -35t-37 -102v-224z M272 1241v193h117v-193h-117z" />
<glyph unicode="&#x118;" horiz-adv-x="647" d="M51 0v98h60v1237h-60v99h516v-410h-100v311h-240v-551h299v-98h-299v-588h240v312h100v-410h-114v-70q0 -52 30 -86t82 -34v-74q-91 0 -144.5 55.5t-53.5 138.5v70h-316z" />
<glyph unicode="&#x119;" d="M84 225v572q0 109 70.5 172t177.5 63t178.5 -63t71.5 -172v-322h-381v-250q0 -62 37.5 -98.5t93.5 -36.5q57 0 95 36t38 99v101h117v-101q0 -89 -49.5 -147t-129.5 -78v-70q0 -51 30.5 -85.5t82.5 -34.5v-74q-91 0 -145 56t-54 138v62q-102 5 -167.5 66.5t-65.5 166.5z M201 573h264v224q0 67 -37 102t-96 35q-57 0 -94 -35t-37 -102v-224z" />
<glyph unicode="&#x11a;" horiz-adv-x="647" d="M51 0v98h60v1237h-60v99h516v-410h-100v311h-240v-551h299v-98h-299v-588h240v312h100v-410h-516zM92 1757l68 68l170 -135l170 135l67 -68l-237 -188z" />
<glyph unicode="&#x11b;" d="M84 225v572q0 109 70.5 172t177.5 63t178.5 -63t71.5 -172v-322h-381v-250q0 -62 37.5 -98.5t93.5 -36.5q57 0 95 36t38 99v101h117v-101q0 -109 -71.5 -171t-178.5 -62t-177.5 62t-70.5 171zM96 1348l68 67l170 -135l170 135l67 -67l-237 -189zM201 573h264v224 q0 67 -37 102t-96 35q-57 0 -94 -35t-37 -102v-224z" />
<glyph unicode="&#x11c;" horiz-adv-x="653" d="M84 219v993q0 106 69.5 168t172.5 62q68 0 129 -18.5t87 -37.5l27 -18v-344h-116v281q-49 38 -127 38q-54 0 -89.5 -35.5t-35.5 -95.5v-993q0 -60 35.5 -94.5t89.5 -34.5t90.5 34.5t36.5 94.5v451h-125v98h241v-549q0 -105 -69.5 -166t-173.5 -61t-173 61t-69 166z M88 1638l238 189l237 -189l-67 -69l-170 135l-170 -135z" />
<glyph unicode="&#x11d;" d="M84 168v631q0 109 71.5 171t178.5 62q70 0 132 -19t89 -38l27 -19v-1189q0 -109 -69.5 -172.5t-174.5 -63.5q-69 0 -131 19t-89 38l-28 19v213h117v-152q51 -39 129 -39q56 0 92.5 37.5t36.5 100.5v339q-35 -55 -90.5 -84.5t-120.5 -29.5q-72 0 -121 47t-49 129zM96 1229 l238 188l237 -188l-67 -70l-170 135l-170 -135zM201 195q0 -49 28.5 -77t71.5 -28q70 0 117 46.5t47 123.5v635q-51 39 -131 39q-57 0 -95 -36t-38 -99v-604z" />
<glyph unicode="&#x11e;" horiz-adv-x="653" d="M84 219v993q0 106 69.5 168t172.5 62q68 0 129 -18.5t87 -37.5l27 -18v-344h-116v281q-49 38 -127 38q-54 0 -89.5 -35.5t-35.5 -95.5v-993q0 -60 35.5 -94.5t89.5 -34.5t90.5 34.5t36.5 94.5v451h-125v98h241v-549q0 -105 -69.5 -166t-173.5 -61t-173 61t-69 166z M133 1747h86q0 -52 30.5 -82.5t76.5 -30.5t78 30.5t32 82.5h84q0 -86 -55.5 -137t-138.5 -51q-82 0 -137.5 50.5t-55.5 137.5z" />
<glyph unicode="&#x11f;" d="M84 168v631q0 109 71.5 171t178.5 62q70 0 132 -19t89 -38l27 -19v-1189q0 -109 -69.5 -172.5t-174.5 -63.5q-69 0 -131 19t-89 38l-28 19v213h117v-152q51 -39 129 -39q56 0 92.5 37.5t36.5 100.5v339q-35 -55 -90.5 -84.5t-120.5 -29.5q-72 0 -121 47t-49 129z M139 1337h86q0 -52 30.5 -82t76.5 -30t78 30t32 82h84q0 -86 -55.5 -137t-138.5 -51q-82 0 -137.5 50.5t-55.5 137.5zM201 195q0 -49 28.5 -77t71.5 -28q70 0 117 46.5t47 123.5v635q-51 39 -131 39q-57 0 -95 -36t-38 -99v-604z" />
<glyph unicode="&#x120;" horiz-adv-x="653" d="M84 219v993q0 106 69.5 168t172.5 62q68 0 129 -18.5t87 -37.5l27 -18v-344h-116v281q-49 38 -127 38q-54 0 -89.5 -35.5t-35.5 -95.5v-993q0 -60 35.5 -94.5t89.5 -34.5t90.5 34.5t36.5 94.5v451h-125v98h241v-549q0 -105 -69.5 -166t-173.5 -61t-173 61t-69 166z M266 1651v192h117v-192h-117z" />
<glyph unicode="&#x121;" d="M84 168v631q0 109 71.5 171t178.5 62q70 0 132 -19t89 -38l27 -19v-1189q0 -109 -69.5 -172.5t-174.5 -63.5q-69 0 -131 19t-89 38l-28 19v213h117v-152q51 -39 129 -39q56 0 92.5 37.5t36.5 100.5v339q-35 -55 -90.5 -84.5t-120.5 -29.5q-72 0 -121 47t-49 129zM201 195 q0 -49 28.5 -77t71.5 -28q70 0 117 46.5t47 123.5v635q-51 39 -131 39q-57 0 -95 -36t-38 -99v-604zM272 1241v193h117v-193h-117z" />
<glyph unicode="&#x122;" horiz-adv-x="653" d="M84 219v993q0 106 69.5 168t172.5 62q68 0 129 -18.5t87 -37.5l27 -18v-344h-116v281q-49 38 -127 38q-54 0 -89.5 -35.5t-35.5 -95.5v-993q0 -60 35.5 -94.5t89.5 -34.5t90.5 34.5t36.5 94.5v451h-125v98h241v-549q0 -105 -69.5 -166t-173.5 -61t-173 61t-69 166z M256 -414q41 126 41 209v144h98v-144q0 -79 -53 -209h-86z" />
<glyph unicode="&#x123;" d="M84 168v631q0 109 71.5 171t178.5 62q70 0 132 -19t89 -38l27 -19v-1189q0 -109 -69.5 -172.5t-174.5 -63.5q-69 0 -131 19t-89 38l-28 19v213h117v-152q51 -39 129 -39q56 0 92.5 37.5t36.5 100.5v339q-35 -55 -90.5 -84.5t-120.5 -29.5q-72 0 -121 47t-49 129zM201 195 q0 -49 28.5 -77t71.5 -28q70 0 117 46.5t47 123.5v635q-51 39 -131 39q-57 0 -95 -36t-38 -99v-604zM272 1184v190q0 52 18.5 114.5t37.5 99.5l18 36h96q-6 -15 -15.5 -40.5t-25.5 -91.5t-16 -118v-190h-113z" />
<glyph unicode="&#x124;" horiz-adv-x="718" d="M51 0v98h60v1237h-60v99h176v-650h265v551h-60v99h236v-99h-60v-1237h60v-98h-176v686h-265v-588h60v-98h-236zM121 1638l237 189l238 -189l-68 -69l-170 135l-170 -135z" />
<glyph unicode="&#x125;" horiz-adv-x="702" d="M51 0v98h60v1288h-60v99h176v-567q37 55 91.5 84.5t119.5 29.5q72 0 121 -47t49 -129v-758h60v-98h-176v829q0 48 -29 76.5t-72 28.5q-70 0 -117 -46.5t-47 -123.5v-666h60v-98h-236zM139 1587l238 189l237 -189l-67 -69l-170 135l-170 -135z" />
<glyph unicode="&#x126;" horiz-adv-x="718" d="M43 1024v98h68v213h-60v99h176v-312h265v213h-60v99h236v-99h-60v-213h68v-98h-68v-926h60v-98h-176v686h-265v-588h60v-98h-236v98h60v926h-68zM227 784h265v240h-265v-240z" />
<glyph unicode="&#x127;" horiz-adv-x="747" d="M59 1200v98h97v187h116v-187h265v-98h-265v-282q35 55 90.5 84.5t120.5 29.5q72 0 121 -47t49 -129v-758h60v-98h-176v829q0 48 -29 76.5t-72 28.5q-70 0 -117 -46.5t-47 -123.5v-666h60v-98h-236v98h60v1102h-97z" />
<glyph unicode="&#x128;" horiz-adv-x="337" d="M-80 1585q0 71 43.5 113.5t108.5 42.5q37 0 65 -13.5t41.5 -29.5t35.5 -29.5t48 -13.5q32 0 54 20.5t22 55.5h78q0 -71 -43 -113.5t-107 -42.5q-37 0 -65 13.5t-42.5 29.5t-36 29.5t-46.5 13.5q-32 0 -54 -20.5t-22 -55.5h-80zM51 0v98h60v1237h-60v99h236v-99h-60v-1237 h60v-98h-236z" />
<glyph unicode="&#x129;" horiz-adv-x="337" d="M-80 1176q0 71 43.5 113t108.5 42q37 0 65 -13.5t41.5 -29.5t35.5 -29.5t48 -13.5q32 0 54 20.5t22 55.5h78q0 -71 -43 -113.5t-107 -42.5q-37 0 -65 13.5t-42.5 29.5t-36 29.5t-46.5 13.5q-32 0 -54 -20t-22 -55h-80zM51 0v98h60v828h-60v98h176v-926h60v-98h-236z" />
<glyph unicode="&#x12a;" horiz-adv-x="337" d="M-29 1642v99h394v-99h-394zM51 0v98h60v1237h-60v99h236v-99h-60v-1237h60v-98h-236z" />
<glyph unicode="&#x12b;" horiz-adv-x="337" d="M-29 1233v98h394v-98h-394zM51 0v98h60v828h-60v98h176v-926h60v-98h-236z" />
<glyph unicode="&#x12c;" horiz-adv-x="337" d="M-25 1747h86q0 -52 30.5 -82.5t76.5 -30.5t78.5 30.5t32.5 82.5h83q0 -86 -55.5 -137t-138.5 -51q-82 0 -137.5 50.5t-55.5 137.5zM51 0v98h60v1237h-60v99h236v-99h-60v-1237h60v-98h-236z" />
<glyph unicode="&#x12d;" horiz-adv-x="337" d="M-25 1337h86q0 -52 30.5 -82t76.5 -30q47 0 79 30t32 82h83q0 -86 -55.5 -137t-138.5 -51q-82 0 -137.5 50.5t-55.5 137.5zM51 0v98h60v828h-60v98h176v-926h60v-98h-236z" />
<glyph unicode="&#x12e;" horiz-adv-x="337" d="M51 0v98h60v1237h-60v99h236v-99h-60v-1237h60v-98h-90v-70q0 -52 30 -86t82 -34v-74q-91 0 -144.5 55.5t-53.5 138.5v70h-60z" />
<glyph unicode="&#x12f;" horiz-adv-x="337" d="M51 0v98h60v828h-60v98h176v-926h60v-98h-90v-70q0 -52 30 -86t82 -34v-74q-91 0 -144.5 55.5t-53.5 138.5v70h-60zM111 1241v193h116v-193h-116z" />
<glyph unicode="&#x130;" horiz-adv-x="337" d="M51 0v98h60v1237h-60v99h236v-99h-60v-1237h60v-98h-236zM111 1651v192h116v-192h-116z" />
<glyph unicode="&#x131;" horiz-adv-x="337" d="M51 0v98h60v828h-60v98h176v-926h60v-98h-236z" />
<glyph unicode="&#x132;" horiz-adv-x="690" d="M51 563v99h60v673h-60v99h236v-99h-60v-673h60v-99h-236zM111 66v344h116v-283q49 -37 127 -37q53 0 89 35.5t36 95.5v1114h-59v99h235v-99h-59v-1114q0 -105 -69.5 -167t-172.5 -62q-69 0 -130 18.5t-87 37.5z" />
<glyph unicode="&#x133;" horiz-adv-x="645" d="M51 0v98h60v828h-60v98h176v-926h60v-98h-236zM111 1241v193h116v-193h-116zM238 -356q30 -15 75 -15q49 0 82 30t33 81v1186h-59v98h176v-1284q0 -96 -63 -152.5t-156 -56.5q-55 0 -88 14v99zM428 1241v193h117v-193h-117z" />
<glyph unicode="&#x134;" horiz-adv-x="663" d="M84 66v344h117v-283q49 -37 125 -37q54 0 90.5 35.5t36.5 95.5v1114h-60v99h236v-99h-60v-1114q0 -106 -69 -167.5t-174 -61.5q-68 0 -128.5 18.5t-87.5 37.5zM274 1638l238 189l238 -189l-68 -69l-170 135l-170 -135z" />
<glyph unicode="&#x135;" horiz-adv-x="327" d="M-80 -356q30 -15 76 -15q49 0 82 30t33 81v1186h-60v98h176v-1284q0 -96 -63 -152.5t-156 -56.5q-55 0 -88 14v99zM-70 1229l238 188l238 -188l-68 -70l-170 135l-170 -135z" />
<glyph unicode="&#x136;" horiz-adv-x="684" d="M51 0v98h60v1237h-60v99h176v-650h76l182 551h-55v99h232v-99h-62l-205 -600l213 -637h60v-98h-156l-207 686h-78v-588h60v-98h-236zM272 -414q41 126 41 209v144h99v-144q0 -77 -54 -209h-86z" />
<glyph unicode="&#x137;" horiz-adv-x="684" d="M51 0v98h60v1288h-60v99h176v-914h95l155 355h-55v98h231v-98h-63l-180 -402l188 -426h61v-98h-147l-190 477h-95v-379h60v-98h-236zM272 -414q41 126 41 209v144h99v-144q0 -77 -54 -209h-86z" />
<glyph unicode="&#x139;" horiz-adv-x="612" d="M51 0v98h60v1237h-60v99h236v-99h-60v-1237h230v312h100v-410h-506zM147 1636l250 211l72 -69l-252 -213z" />
<glyph unicode="&#x13a;" horiz-adv-x="337" d="M8 1585l250 211l72 -70l-252 -213zM51 0v98h60v1288h-60v99h176v-1387h60v-98h-236z" />
<glyph unicode="&#x13b;" horiz-adv-x="612" d="M51 0v98h60v1237h-60v99h236v-99h-60v-1237h230v312h100v-410h-506zM242 -414q41 126 41 209v144h98v-144q0 -79 -53 -209h-86z" />
<glyph unicode="&#x13c;" horiz-adv-x="337" d="M51 0v98h60v1288h-60v99h176v-1387h60v-98h-236zM80 -414q41 126 41 209v144h98v-144q0 -79 -53 -209h-86z" />
<glyph unicode="&#x13d;" horiz-adv-x="612" d="M-70 1757l68 68l170 -135l170 135l68 -68l-238 -188zM51 0v98h60v1237h-60v99h236v-99h-60v-1237h230v312h100v-410h-506z" />
<glyph unicode="&#x13e;" horiz-adv-x="604" d="M51 0v98h60v1288h-60v99h176v-1387h60v-98h-236zM328 1044q6 15 15.5 40t25.5 91t16 117v193h113v-193q0 -51 -18 -113t-36 -99l-18 -36h-98z" />
<glyph unicode="&#x13f;" horiz-adv-x="612" d="M51 0v98h60v1237h-60v99h236v-99h-60v-1237h230v312h100v-410h-506zM455 522v180h106v-180h-106z" />
<glyph unicode="&#x140;" horiz-adv-x="589" d="M51 0v98h60v1288h-60v99h176v-1387h60v-98h-236zM369 442v191h112v-191h-112z" />
<glyph unicode="&#x141;" horiz-adv-x="612" d="M51 0v98h60v385l-52 -51v123l52 51v729h-60v99h236v-99h-60v-614l179 178v-123l-179 -178v-500h230v312h100v-410h-506z" />
<glyph unicode="&#x142;" horiz-adv-x="473" d="M63 432v123l115 115v716h-59v99h176v-699l113 113v-123l-113 -112v-566h59v-98h-235v98h59v449z" />
<glyph unicode="&#x143;" horiz-adv-x="722" d="M51 0v98h60v1237h-60v99h166l277 -1080h6v981h-60v99h232v-99h-60v-1335h-106l-279 1079h-4v-981h60v-98h-232zM201 1636l250 211l71 -69l-252 -213z" />
<glyph unicode="&#x144;" horiz-adv-x="702" d="M51 0v98h60v828h-60v98h176v-106q37 55 91.5 84.5t119.5 29.5q72 0 121 -47t49 -129v-758h60v-98h-176v829q0 48 -29 76.5t-72 28.5q-70 0 -117 -46.5t-47 -123.5v-666h60v-98h-236zM190 1227l250 211l72 -70l-252 -213z" />
<glyph unicode="&#x145;" horiz-adv-x="722" d="M51 0v98h60v1237h-60v99h166l277 -1080h6v981h-60v99h232v-99h-60v-1335h-106l-279 1079h-4v-981h60v-98h-232zM291 -414q41 126 41 209v144h98v-144q0 -79 -53 -209h-86z" />
<glyph unicode="&#x146;" horiz-adv-x="702" d="M51 0v98h60v828h-60v98h176v-106q37 55 91.5 84.5t119.5 29.5q72 0 121 -47t49 -129v-758h60v-98h-176v829q0 48 -29 76.5t-72 28.5q-70 0 -117 -46.5t-47 -123.5v-666h60v-98h-236zM281 -414q41 126 41 209v144h98v-144q0 -79 -53 -209h-86z" />
<glyph unicode="&#x147;" horiz-adv-x="722" d="M51 0v98h60v1237h-60v99h166l277 -1080h6v981h-60v99h232v-99h-60v-1335h-106l-279 1079h-4v-981h60v-98h-232zM123 1757l67 68l170 -135l170 135l68 -68l-238 -188z" />
<glyph unicode="&#x148;" horiz-adv-x="702" d="M51 0v98h60v828h-60v98h176v-106q37 55 91.5 84.5t119.5 29.5q72 0 121 -47t49 -129v-758h60v-98h-176v829q0 48 -29 76.5t-72 28.5q-70 0 -117 -46.5t-47 -123.5v-666h60v-98h-236zM113 1348l67 67l170 -135l170 135l68 -67l-238 -189z" />
<glyph unicode="&#x14a;" horiz-adv-x="722" d="M51 0v98h60v1237h-60v99h166l277 -1080h6v981h-60v99h232v-99h-60v-1601q0 -94 -60 -148.5t-151 -54.5q-94 0 -155.5 54.5t-61.5 148.5v106h117v-106q0 -48 28.5 -76.5t71.5 -28.5q41 0 70 28.5t29 76.5v291l-273 1054h-4v-981h60v-98h-232z" />
<glyph unicode="&#x14b;" horiz-adv-x="675" d="M35 0v98h59v828h-59v98h176v-106q35 55 90.5 84.5t120.5 29.5q72 0 121 -47t49 -129v-1122q0 -94 -61.5 -148.5t-153.5 -54.5t-153.5 54.5t-61.5 148.5v106h117v-106q0 -48 28.5 -76.5t69.5 -28.5q42 0 70 28.5t28 76.5v1095q0 48 -28.5 76.5t-71.5 28.5 q-70 0 -117 -46.5t-47 -123.5v-666h59v-98h-235z" />
<glyph unicode="&#x14c;" d="M84 225v981q0 109 70.5 172.5t177.5 63.5t178.5 -63.5t71.5 -172.5v-981q0 -109 -71.5 -171t-178.5 -62t-177.5 62t-70.5 171zM135 1642v99h393v-99h-393zM201 225q0 -62 37.5 -98.5t93.5 -36.5q57 0 95 36t38 99v981q0 63 -38 100t-95 37q-56 0 -93.5 -37t-37.5 -100 v-981z" />
<glyph unicode="&#x14d;" d="M84 225v572q0 109 70.5 172t177.5 63t178.5 -63t71.5 -172v-572q0 -109 -71.5 -171t-178.5 -62t-177.5 62t-70.5 171zM135 1233v98h393v-98h-393zM201 225q0 -62 37.5 -98.5t93.5 -36.5q57 0 95 36t38 99v572q0 63 -38 100t-95 37q-56 0 -93.5 -37t-37.5 -100v-572z" />
<glyph unicode="&#x14e;" d="M84 225v981q0 109 70.5 172.5t177.5 63.5t178.5 -63.5t71.5 -172.5v-981q0 -109 -71.5 -171t-178.5 -62t-177.5 62t-70.5 171zM139 1747h86q0 -52 30.5 -82.5t76.5 -30.5t78 30.5t32 82.5h84q0 -86 -55.5 -137t-138.5 -51q-82 0 -137.5 50.5t-55.5 137.5zM201 225 q0 -62 37.5 -98.5t93.5 -36.5q57 0 95 36t38 99v981q0 63 -38 100t-95 37q-56 0 -93.5 -37t-37.5 -100v-981z" />
<glyph unicode="&#x14f;" d="M84 225v572q0 109 70.5 172t177.5 63t178.5 -63t71.5 -172v-572q0 -109 -71.5 -171t-178.5 -62t-177.5 62t-70.5 171zM139 1337h86q0 -52 30.5 -82t76.5 -30t78 30t32 82h84q0 -86 -55.5 -137t-138.5 -51q-82 0 -137.5 50.5t-55.5 137.5zM201 225q0 -62 37.5 -98.5 t93.5 -36.5q57 0 95 36t38 99v572q0 63 -38 100t-95 37q-56 0 -93.5 -37t-37.5 -100v-572z" />
<glyph unicode="&#x150;" d="M41 1622l235 238l70 -70l-235 -238zM84 225v981q0 109 70.5 172.5t177.5 63.5t178.5 -63.5t71.5 -172.5v-981q0 -109 -71.5 -171t-178.5 -62t-177.5 62t-70.5 171zM201 225q0 -62 37.5 -98.5t93.5 -36.5q57 0 95 36t38 99v981q0 63 -38 100t-95 37q-56 0 -93.5 -37 t-37.5 -100v-981zM317 1622l236 238l70 -70l-236 -238z" />
<glyph unicode="&#x151;" d="M41 1212l235 238l70 -70l-235 -237zM84 225v572q0 109 70.5 172t177.5 63t178.5 -63t71.5 -172v-572q0 -109 -71.5 -171t-178.5 -62t-177.5 62t-70.5 171zM201 225q0 -62 37.5 -98.5t93.5 -36.5q57 0 95 36t38 99v572q0 63 -38 100t-95 37q-56 0 -93.5 -37t-37.5 -100 v-572zM317 1212l236 238l70 -70l-236 -237z" />
<glyph unicode="&#x152;" horiz-adv-x="950" d="M96 225v981q0 109 61.5 172.5t155.5 63.5q71 0 129 -39v31h426v-410h-102v311h-207v-551h268v-98h-268v-588h207v312h102v-410h-426v31q-58 -39 -129 -39q-94 0 -155.5 62t-61.5 171zM213 225q0 -62 37.5 -98.5t93.5 -36.5q61 0 98 37v1176q-37 40 -98 40 q-56 0 -93.5 -37t-37.5 -100v-981z" />
<glyph unicode="&#x153;" horiz-adv-x="929" d="M84 225v572q0 109 70.5 172t177.5 63q63 0 115 -28.5t75 -79.5q24 51 76.5 79.5t114.5 28.5q108 0 180 -63t72 -172v-322h-383v-250q0 -62 37.5 -98.5t93.5 -36.5q58 0 96.5 36.5t38.5 98.5v101h117v-101q0 -109 -71.5 -171t-180.5 -62q-64 0 -115.5 27.5t-75.5 78.5 q-23 -51 -74.5 -78.5t-115.5 -27.5q-107 0 -177.5 62t-70.5 171zM201 225q0 -62 37.5 -98.5t93.5 -36.5q57 0 95 36t38 99v572q0 63 -38 100t-95 37q-56 0 -93.5 -37t-37.5 -100v-572zM582 573h266v224q0 67 -38 102t-97 35q-57 0 -94 -35t-37 -102v-224z" />
<glyph unicode="&#x154;" horiz-adv-x="690" d="M51 0v98h60v1237h-60v99h295q107 0 178.5 -63.5t71.5 -172.5v-340q0 -82 -41.5 -135.5t-110.5 -73.5l168 -551h60v-98h-158l-170 625h-117v-527h60v-98h-236zM184 1636l250 211l72 -69l-252 -213zM227 723h119q57 0 95 36t38 99v340q0 63 -38 100t-95 37h-119v-612z" />
<glyph unicode="&#x155;" horiz-adv-x="610" d="M51 0v98h60v828h-60v98h176v-150q71 158 205 158q36 0 67 -19t45 -38l13 -19v-258h-117v197q-2 4 -7 10.5t-21 17.5t-33 11q-70 0 -111 -68.5t-41 -167.5v-600h60v-98h-236zM156 1227l250 211l71 -70l-252 -213z" />
<glyph unicode="&#x156;" horiz-adv-x="690" d="M51 0v98h60v1237h-60v99h295q107 0 178.5 -63.5t71.5 -172.5v-340q0 -82 -41.5 -135.5t-110.5 -73.5l168 -551h60v-98h-158l-170 625h-117v-527h60v-98h-236zM227 723h119q57 0 95 36t38 99v340q0 63 -38 100t-95 37h-119v-612zM274 -414q41 126 41 209v144h99v-144 q0 -77 -54 -209h-86z" />
<glyph unicode="&#x157;" horiz-adv-x="610" d="M51 0v98h60v828h-60v98h176v-150q71 158 205 158q36 0 67 -19t45 -38l13 -19v-258h-117v197q-2 4 -7 10.5t-21 17.5t-33 11q-70 0 -111 -68.5t-41 -167.5v-600h60v-98h-236zM80 -414q41 126 41 209v144h98v-144q0 -79 -53 -209h-86z" />
<glyph unicode="&#x158;" horiz-adv-x="690" d="M51 0v98h60v1237h-60v99h295q107 0 178.5 -63.5t71.5 -172.5v-340q0 -82 -41.5 -135.5t-110.5 -73.5l168 -551h60v-98h-158l-170 625h-117v-527h60v-98h-236zM109 1757l67 68l170 -135l170 135l68 -68l-238 -188zM227 723h119q57 0 95 36t38 99v340q0 63 -38 100t-95 37 h-119v-612z" />
<glyph unicode="&#x159;" horiz-adv-x="610" d="M51 0v98h60v828h-60v98h176v-150q71 158 205 158q36 0 67 -19t45 -38l13 -19v-258h-117v197q-2 4 -7 10.5t-21 17.5t-33 11q-70 0 -111 -68.5t-41 -167.5v-600h60v-98h-236zM78 1348l67 67l170 -135l170 135l68 -67l-238 -189z" />
<glyph unicode="&#x15a;" d="M84 66v344h117v-283q49 -37 131 -37q57 0 95 37t38 98v281q0 46 -21 79.5t-54.5 54t-73.5 38.5t-80.5 39t-74 49t-54.5 76t-21 112v256q0 107 70.5 169.5t175.5 62.5q70 0 132 -18.5t89 -37.5l27 -18v-344h-117v281q-51 38 -131 38q-55 0 -92 -36t-37 -97v-256 q0 -47 21 -81t54.5 -54.5t73.5 -38.5t80.5 -39t74 -48.5t54.5 -75t21 -111.5v-281q0 -107 -71 -170t-179 -63q-70 0 -132 18.5t-89 37.5zM172 1636l250 211l72 -69l-252 -213z" />
<glyph unicode="&#x15b;" horiz-adv-x="653" d="M84 68v258h117v-197q49 -39 125 -39q54 0 90.5 35.5t36.5 93.5v123q0 55 -38 87t-91.5 49t-107.5 37.5t-92 69.5t-38 128v94q0 104 68 164.5t170 60.5q67 0 126 -19t85 -38l26 -19v-258h-117v197q-48 39 -120 39q-52 0 -86.5 -34t-34.5 -93v-94q0 -41 20 -68.5t52.5 -43 t71.5 -28t78 -28.5t71.5 -38.5t52.5 -64.5t20 -100v-123q0 -105 -69 -166t-174 -61q-68 0 -128.5 19t-87.5 38zM166 1227l250 211l71 -70l-251 -213z" />
<glyph unicode="&#x15c;" d="M84 66v344h117v-283q49 -37 131 -37q57 0 95 37t38 98v281q0 46 -21 79.5t-54.5 54t-73.5 38.5t-80.5 39t-74 49t-54.5 76t-21 112v256q0 107 70.5 169.5t175.5 62.5q70 0 132 -18.5t89 -37.5l27 -18v-344h-117v281q-51 38 -131 38q-55 0 -92 -36t-37 -97v-256 q0 -47 21 -81t54.5 -54.5t73.5 -38.5t80.5 -39t74 -48.5t54.5 -75t21 -111.5v-281q0 -107 -71 -170t-179 -63q-70 0 -132 18.5t-89 37.5zM96 1638l238 189l237 -189l-67 -69l-170 135l-170 -135z" />
<glyph unicode="&#x15d;" horiz-adv-x="653" d="M84 68v258h117v-197q49 -39 125 -39q54 0 90.5 35.5t36.5 93.5v123q0 55 -38 87t-91.5 49t-107.5 37.5t-92 69.5t-38 128v94q0 104 68 164.5t170 60.5q67 0 126 -19t85 -38l26 -19v-258h-117v197q-48 39 -120 39q-52 0 -86.5 -34t-34.5 -93v-94q0 -41 20 -68.5t52.5 -43 t71.5 -28t78 -28.5t71.5 -38.5t52.5 -64.5t20 -100v-123q0 -105 -69 -166t-174 -61q-68 0 -128.5 19t-87.5 38zM88 1229l238 188l237 -188l-67 -70l-170 135l-170 -135z" />
<glyph unicode="&#x15e;" d="M84 66v344h117v-283q49 -37 131 -37q57 0 95 37t38 98v281q0 46 -21 79.5t-54.5 54t-73.5 38.5t-80.5 39t-74 49t-54.5 76t-21 112v256q0 107 70.5 169.5t175.5 62.5q70 0 132 -18.5t89 -37.5l27 -18v-344h-117v281q-51 38 -131 38q-55 0 -92 -36t-37 -97v-256 q0 -47 21 -81t54.5 -54.5t73.5 -38.5t80.5 -39t74 -48.5t54.5 -75t21 -111.5v-281q0 -96 -57.5 -157t-147.5 -72v-270h-90v268q-58 5 -109 23t-72 33z" />
<glyph unicode="&#x15f;" horiz-adv-x="653" d="M84 68v258h117v-197q49 -39 125 -39q54 0 90.5 35.5t36.5 93.5v123q0 55 -38 87t-91.5 49t-107.5 37.5t-92 69.5t-38 128v94q0 104 68 164.5t170 60.5q67 0 126 -19t85 -38l26 -19v-258h-117v197q-48 39 -120 39q-52 0 -86.5 -34t-34.5 -93v-94q0 -41 20 -68.5t52.5 -43 t71.5 -28t78 -28.5t71.5 -38.5t52.5 -64.5t20 -100v-123q0 -94 -55 -153t-143 -70v-270h-90v268q-56 5 -105.5 23.5t-70.5 34.5z" />
<glyph unicode="&#x160;" d="M84 66v344h117v-283q49 -37 131 -37q57 0 95 37t38 98v281q0 46 -21 79.5t-54.5 54t-73.5 38.5t-80.5 39t-74 49t-54.5 76t-21 112v256q0 107 70.5 169.5t175.5 62.5q70 0 132 -18.5t89 -37.5l27 -18v-344h-117v281q-51 38 -131 38q-55 0 -92 -36t-37 -97v-256 q0 -47 21 -81t54.5 -54.5t73.5 -38.5t80.5 -39t74 -48.5t54.5 -75t21 -111.5v-281q0 -107 -71 -170t-179 -63q-70 0 -132 18.5t-89 37.5zM96 1757l68 68l170 -135l170 135l67 -68l-237 -188z" />
<glyph unicode="&#x161;" horiz-adv-x="653" d="M84 68v258h117v-197q49 -39 125 -39q54 0 90.5 35.5t36.5 93.5v123q0 55 -38 87t-91.5 49t-107.5 37.5t-92 69.5t-38 128v94q0 104 68 164.5t170 60.5q67 0 126 -19t85 -38l26 -19v-258h-117v197q-48 39 -120 39q-52 0 -86.5 -34t-34.5 -93v-94q0 -41 20 -68.5t52.5 -43 t71.5 -28t78 -28.5t71.5 -38.5t52.5 -64.5t20 -100v-123q0 -105 -69 -166t-174 -61q-68 0 -128.5 19t-87.5 38zM88 1348l68 67l170 -135l170 135l67 -67l-237 -189z" />
<glyph unicode="&#x162;" horiz-adv-x="686" d="M47 1024v410h592v-410h-100v311h-138v-1237h60v-98h-236v98h60v1237h-135v-311h-103zM254 -414q41 126 41 209v144h98v-144q0 -79 -53 -209h-86z" />
<glyph unicode="&#x163;" horiz-adv-x="512" d="M61 926v98h60v205h117v-205h225v-98h-225v-699q0 -63 38 -100t97 -37q48 0 90 14v-100q-54 -12 -101 -12q-104 0 -172.5 62.5t-68.5 172.5v699h-60zM197 -414q41 126 41 209v144h98v-144q0 -79 -53 -209h-86z" />
<glyph unicode="&#x164;" horiz-adv-x="686" d="M47 1024v410h592v-410h-100v311h-138v-1237h60v-98h-236v98h60v1237h-135v-311h-103zM106 1757l68 68l170 -135l170 135l68 -68l-238 -188z" />
<glyph unicode="&#x165;" horiz-adv-x="792" d="M61 926v98h60v205h117v-205h225v-98h-225v-699q0 -63 38 -100t97 -37q48 0 90 14v-100q-54 -12 -101 -12q-104 0 -172.5 62.5t-68.5 172.5v699h-60zM524 836l16 40t26 90.5t16 116.5v193h112v-193q0 -51 -18 -113t-36 -98l-17 -36h-99z" />
<glyph unicode="&#x166;" horiz-adv-x="686" d="M47 1024v410h592v-410h-100v311h-138v-514h197v-96h-197v-627h60v-98h-236v98h60v627h-197v96h197v514h-135v-311h-103z" />
<glyph unicode="&#x167;" horiz-adv-x="512" d="M61 590v98h60v238h-60v98h60v205h117v-205h225v-98h-225v-238h225v-98h-225v-363q0 -63 38 -100t97 -37q48 0 90 14v-100q-54 -12 -101 -12q-104 0 -172.5 62.5t-68.5 172.5v363h-60z" />
<glyph unicode="&#x168;" horiz-adv-x="686" d="M35 1335v99h176v-1209q0 -62 37.5 -98.5t93.5 -36.5q57 0 95 36t38 99v1110h-59v99h235v-99h-59v-1110q0 -109 -71.5 -171t-178.5 -62t-177.5 62t-70.5 171v1110h-59zM94 1585q0 71 43.5 113.5t108.5 42.5q37 0 65 -13.5t41.5 -29.5t35.5 -29.5t48 -13.5q32 0 54 20.5 t22 55.5h78q0 -71 -43 -113.5t-107 -42.5q-37 0 -65 13.5t-42.5 29.5t-36 29.5t-46.5 13.5q-32 0 -54 -20.5t-22 -55.5h-80z" />
<glyph unicode="&#x169;" horiz-adv-x="702" d="M35 926v98h176v-829q0 -49 28.5 -77t71.5 -28q70 0 117 46.5t47 123.5v666h-59v98h176v-926h59v-98h-176v106q-35 -55 -90.5 -84.5t-120.5 -29.5q-72 0 -121 47t-49 129v758h-59zM102 1176q0 71 43.5 113t108.5 42q37 0 65 -13.5t41.5 -29.5t35.5 -29.5t48 -13.5 q32 0 54 20.5t22 55.5h78q0 -71 -42.5 -113.5t-106.5 -42.5q-37 0 -65 13.5t-43 29.5t-36.5 29.5t-46.5 13.5q-32 0 -54 -20t-22 -55h-80z" />
<glyph unicode="&#x16a;" horiz-adv-x="686" d="M35 1335v99h176v-1209q0 -62 37.5 -98.5t93.5 -36.5q57 0 95 36t38 99v1110h-59v99h235v-99h-59v-1110q0 -109 -71.5 -171t-178.5 -62t-177.5 62t-70.5 171v1110h-59zM145 1642v99h394v-99h-394z" />
<glyph unicode="&#x16b;" horiz-adv-x="702" d="M35 926v98h176v-829q0 -49 28.5 -77t71.5 -28q70 0 117 46.5t47 123.5v666h-59v98h176v-926h59v-98h-176v106q-35 -55 -90.5 -84.5t-120.5 -29.5q-72 0 -121 47t-49 129v758h-59zM154 1233v98h393v-98h-393z" />
<glyph unicode="&#x16c;" horiz-adv-x="686" d="M35 1335v99h176v-1209q0 -62 37.5 -98.5t93.5 -36.5q57 0 95 36t38 99v1110h-59v99h235v-99h-59v-1110q0 -109 -71.5 -171t-178.5 -62t-177.5 62t-70.5 171v1110h-59zM150 1747h86q0 -52 30 -82.5t76 -30.5t78.5 30.5t32.5 82.5h84q0 -86 -56 -137t-139 -51 q-82 0 -137 50.5t-55 137.5z" />
<glyph unicode="&#x16d;" horiz-adv-x="702" d="M35 926v98h176v-829q0 -49 28.5 -77t71.5 -28q70 0 117 46.5t47 123.5v666h-59v98h176v-926h59v-98h-176v106q-35 -55 -90.5 -84.5t-120.5 -29.5q-72 0 -121 47t-49 129v758h-59zM158 1337h86q0 -52 30 -82t76 -30q47 0 79 30t32 82h84q0 -86 -56 -137t-139 -51 q-82 0 -137 50.5t-55 137.5z" />
<glyph unicode="&#x16e;" horiz-adv-x="686" d="M35 1335v99h176v-1209q0 -62 37.5 -98.5t93.5 -36.5q57 0 95 36t38 99v1110h-59v99h235v-99h-59v-1110q0 -109 -71.5 -171t-178.5 -62t-177.5 62t-70.5 171v1110h-59zM176 1698q0 79 47 124.5t119 45.5t120 -45.5t48 -122.5q0 -79 -48 -122.5t-120 -43.5t-119 43.5 t-47 120.5zM254 1698q0 -41 25.5 -66.5t62.5 -25.5q38 0 64 25t26 67q0 44 -26 70t-64 26q-37 0 -62.5 -26t-25.5 -70z" />
<glyph unicode="&#x16f;" horiz-adv-x="702" d="M35 926v98h176v-829q0 -49 28.5 -77t71.5 -28q70 0 117 46.5t47 123.5v666h-59v98h176v-926h59v-98h-176v106q-35 -55 -90.5 -84.5t-120.5 -29.5q-72 0 -121 47t-49 129v758h-59zM184 1288q0 79 47 124.5t119 45.5t120 -45.5t48 -122.5q0 -79 -48 -122.5t-120 -43.5 t-119 43.5t-47 120.5zM262 1288q0 -41 25.5 -66.5t62.5 -25.5q38 0 64 25t26 67q0 44 -26 70t-64 26q-37 0 -62.5 -26t-25.5 -70z" />
<glyph unicode="&#x170;" horiz-adv-x="686" d="M35 1335v99h176v-1209q0 -62 37.5 -98.5t93.5 -36.5q57 0 95 36t38 99v1110h-59v99h235v-99h-59v-1110q0 -109 -71.5 -171t-178.5 -62t-177.5 62t-70.5 171v1110h-59zM51 1622l236 238l69 -70l-235 -238zM328 1622l235 238l70 -70l-236 -238z" />
<glyph unicode="&#x171;" horiz-adv-x="702" d="M35 926v98h176v-829q0 -49 28.5 -77t71.5 -28q70 0 117 46.5t47 123.5v666h-59v98h176v-926h59v-98h-176v106q-35 -55 -90.5 -84.5t-120.5 -29.5q-72 0 -121 47t-49 129v758h-59zM59 1212l236 238l70 -70l-236 -237zM336 1212l235 238l70 -70l-235 -237z" />
<glyph unicode="&#x172;" horiz-adv-x="686" d="M35 1335v99h176v-1209q0 -62 37.5 -98.5t93.5 -36.5q57 0 95 36t38 99v1110h-59v99h235v-99h-59v-1110q0 -89 -49 -147t-129 -78v-70q0 -52 30 -86t82 -34v-74q-91 0 -144.5 55.5t-53.5 138.5v62q-102 5 -168 66.5t-66 166.5v1110h-59z" />
<glyph unicode="&#x173;" horiz-adv-x="702" d="M35 926v98h176v-829q0 -49 28.5 -77t71.5 -28q70 0 117 46.5t47 123.5v666h-59v98h176v-926h59v-98h-90v-70q0 -51 30.5 -85.5t82.5 -34.5v-74q-91 0 -145 56t-54 138v176q-35 -55 -90.5 -84.5t-120.5 -29.5q-72 0 -121 47t-49 129v758h-59z" />
<glyph unicode="&#x174;" horiz-adv-x="1120" d="M0 1335v99h168l162 -1297h4l147 1297h156l145 -1297h4l156 1198h-59v99h233v-99h-59l-197 -1335h-155l-144 1286h-4l-143 -1286h-156l-199 1335h-59zM324 1638l237 189l238 -189l-68 -69l-170 135l-170 -135z" />
<glyph unicode="&#x175;" horiz-adv-x="1071" d="M2 926v98h164l151 -913h5l137 913h149l137 -913h5l139 815h-60v98h236v-98h-61l-181 -926h-153l-133 903h-5l-135 -903h-153l-183 926h-59zM297 1229l238 188l237 -188l-67 -70l-170 135l-170 -135z" />
<glyph unicode="&#x176;" horiz-adv-x="673" d="M2 1335v99h162l170 -764h4l156 665h-58v99h234v-99h-64l-213 -858v-379h60v-98h-236v98h59v379l-210 858h-64zM98 1638l238 189l237 -189l-67 -69l-170 135l-170 -135z" />
<glyph unicode="&#x177;" horiz-adv-x="688" d="M35 926v98h176v-829q0 -49 28.5 -77t71.5 -28q70 0 117 46.5t47 123.5v666h-59v98h176v-1257q0 -109 -69.5 -172.5t-174.5 -63.5q-69 0 -131 19t-89 38l-28 19v221h117v-160q51 -39 129 -39q56 0 92.5 37.5t36.5 100.5v339q-35 -55 -90.5 -84.5t-120.5 -29.5 q-72 0 -121 47t-49 129v758h-59zM111 1229l237 188l238 -188l-68 -70l-170 135l-170 -135z" />
<glyph unicode="&#x178;" horiz-adv-x="673" d="M2 1335v99h162l170 -764h4l156 665h-58v99h234v-99h-64l-213 -858v-379h60v-98h-236v98h59v379l-210 858h-64zM139 1620v190h101v-190h-101zM430 1620v190h102v-190h-102z" />
<glyph unicode="&#x179;" horiz-adv-x="655" d="M80 0v63l371 1272h-271v-311h-100v410h495v-64l-368 -1272h266v312h102v-410h-495zM168 1636l250 211l71 -69l-251 -213z" />
<glyph unicode="&#x17a;" horiz-adv-x="655" d="M84 0v63l356 863h-262v-228h-94v326h487v-63l-354 -863h260v228h94v-326h-487zM168 1227l250 211l71 -70l-251 -213z" />
<glyph unicode="&#x17b;" horiz-adv-x="655" d="M80 0v63l371 1272h-271v-311h-100v410h495v-64l-368 -1272h266v312h102v-410h-495zM268 1651v192h117v-192h-117z" />
<glyph unicode="&#x17c;" horiz-adv-x="655" d="M84 0v63l356 863h-262v-228h-94v326h487v-63l-354 -863h260v228h94v-326h-487zM268 1241v193h117v-193h-117z" />
<glyph unicode="&#x17d;" horiz-adv-x="655" d="M80 0v63l371 1272h-271v-311h-100v410h495v-64l-368 -1272h266v312h102v-410h-495zM90 1757l68 68l170 -135l170 135l67 -68l-237 -188z" />
<glyph unicode="&#x17e;" horiz-adv-x="655" d="M84 0v63l356 863h-262v-228h-94v326h487v-63l-354 -863h260v228h94v-326h-487zM90 1348l68 67l170 -135l170 135l67 -67l-237 -189z" />
<glyph unicode="&#x17f;" horiz-adv-x="579" d="M35 0v98h59v828h-59v98h59v268q0 94 61 147.5t154 53.5t154 -53.5t61 -147.5v-71h-116v71q0 46 -29 74.5t-70 28.5q-42 0 -70 -28.5t-28 -74.5v-1194h59v-98h-235z" />
<glyph unicode="&#x18f;" horiz-adv-x="653" d="M84 219v549h369v444q0 60 -36.5 95.5t-90.5 35.5q-34 0 -65 -9.5t-45 -19.5l-15 -9v-281h-117v344q10 8 29 20.5t82 33t131 20.5q105 0 174 -62t69 -168v-993q0 -105 -68.5 -166t-172.5 -61t-174 61t-70 166zM201 219q0 -60 36.5 -94.5t90.5 -34.5q53 0 89 35t36 94v451 h-252v-451z" />
<glyph unicode="&#x192;" horiz-adv-x="485" d="M-90 -356q30 -15 76 -15q49 0 81.5 30t32.5 81v1186h-59v98h59v233q0 110 69 173t173 63q46 0 100 -12v-101q-45 15 -90 15q-58 0 -96.5 -37.5t-38.5 -100.5v-233h225v-98h-225v-1186q0 -96 -63 -152.5t-156 -56.5q-55 0 -88 14v99z" />
<glyph unicode="&#x1dd;" d="M84 227v346h381v226q0 62 -37.5 98.5t-93.5 36.5q-36 0 -69 -10t-49 -20l-15 -9v-186h-117v247q4 3 11 8t31.5 18.5t51.5 23.5t69.5 18t86.5 8q107 0 177.5 -62t70.5 -171v-572q0 -109 -70.5 -172t-177.5 -63t-178.5 63t-71.5 172zM201 227q0 -67 37 -102t96 -35 q57 0 94 35t37 102v248h-264v-248z" />
<glyph unicode="&#x1fc;" horiz-adv-x="913" d="M0 0v98h63l246 1237h-47v99h572v-410h-101v311h-207v-551h267v-98h-267v-588h207v312h101v-410h-424v385h-174l-60 -287h60v-98h-236zM252 483h158v822h-4zM291 1636l250 211l71 -69l-252 -213z" />
<glyph unicode="&#x1fd;" horiz-adv-x="1046" d="M84 162v157q0 110 64.5 174t164.5 72l152 13v221q0 62 -37.5 98.5t-93.5 36.5q-36 0 -69.5 -10t-48.5 -20l-15 -9v-197h-117v258q4 3 11 8t31.5 18.5t51.5 23.5t69.5 18t86.5 8q63 0 113.5 -28t76.5 -80q24 51 75.5 79.5t113.5 28.5q108 0 180 -63t72 -172v-316h-383 v-256q0 -62 37.5 -98.5t93.5 -36.5q58 0 96.5 36.5t38.5 98.5v101h117v-101q0 -109 -71.5 -171t-180.5 -62q-78 0 -138 35t-86 98q-85 -133 -241 -133q-70 0 -117 45.5t-47 124.5zM201 188q0 -46 27 -72t67 -26q67 0 118.5 47t51.5 123v217l-131 -10q-57 -5 -95 -45 t-38 -103v-131zM362 1227l250 211l72 -70l-252 -213zM582 580h266v217q0 67 -38 102t-97 35q-57 0 -94 -35t-37 -102v-217z" />
<glyph unicode="&#x1fe;" d="M68 0l36 119q-20 44 -20 106v981q0 109 70.5 172.5t177.5 63.5q104 0 176 -62l16 54h74l-39 -121q23 -51 23 -107v-981q0 -109 -71.5 -171t-178.5 -62q-106 0 -174 59l-17 -51h-73zM172 1636l250 211l72 -69l-252 -213zM201 418l260 819q-9 50 -44.5 78t-84.5 28 q-56 0 -93.5 -37t-37.5 -100v-788zM203 195q9 -50 44.5 -77.5t84.5 -27.5q57 0 95 36t38 99v791z" />
<glyph unicode="&#x1ff;" d="M68 0l45 104q-29 53 -29 121v572q0 109 70.5 172t177.5 63q101 0 170 -57l22 49h74l-47 -106q31 -57 31 -121v-572q0 -109 -71.5 -171t-178.5 -62q-103 0 -170 55l-21 -47h-73zM172 1227l250 211l72 -70l-252 -213zM201 299l250 561q-15 35 -47.5 54.5t-71.5 19.5 q-56 0 -93.5 -37t-37.5 -100v-498zM213 160q36 -70 119 -70q57 0 95 36t38 99v500z" />
<glyph unicode="&#x218;" d="M84 66v344h117v-283q49 -37 131 -37q57 0 95 37t38 98v281q0 46 -21 79.5t-54.5 54t-73.5 38.5t-80.5 39t-74 49t-54.5 76t-21 112v256q0 107 70.5 169.5t175.5 62.5q70 0 132 -18.5t89 -37.5l27 -18v-344h-117v281q-51 38 -131 38q-55 0 -92 -36t-37 -97v-256 q0 -47 21 -81t54.5 -54.5t73.5 -38.5t80.5 -39t74 -48.5t54.5 -75t21 -111.5v-281q0 -107 -71 -170t-179 -63q-70 0 -132 18.5t-89 37.5zM244 -414q41 126 41 209v144h98v-144q0 -79 -53 -209h-86z" />
<glyph unicode="&#x219;" horiz-adv-x="653" d="M84 68v258h117v-197q49 -39 125 -39q54 0 90.5 35.5t36.5 93.5v123q0 55 -38 87t-91.5 49t-107.5 37.5t-92 69.5t-38 128v94q0 104 68 164.5t170 60.5q67 0 126 -19t85 -38l26 -19v-258h-117v197q-48 39 -120 39q-52 0 -86.5 -34t-34.5 -93v-94q0 -41 20 -68.5t52.5 -43 t71.5 -28t78 -28.5t71.5 -38.5t52.5 -64.5t20 -100v-123q0 -105 -69 -166t-174 -61q-68 0 -128.5 19t-87.5 38zM240 -414q41 126 41 209v144h98v-144q0 -79 -53 -209h-86z" />
<glyph unicode="&#x21a;" horiz-adv-x="686" d="M47 1024v410h592v-410h-100v311h-138v-1237h60v-98h-236v98h60v1237h-135v-311h-103zM254 -414q41 126 41 209v144h98v-144q0 -79 -53 -209h-86z" />
<glyph unicode="&#x21b;" horiz-adv-x="512" d="M61 926v98h60v205h117v-205h225v-98h-225v-699q0 -63 38 -100t97 -37q48 0 90 14v-100q-54 -12 -101 -12q-104 0 -172.5 62.5t-68.5 172.5v699h-60zM197 -414q41 126 41 209v144h98v-144q0 -79 -53 -209h-86z" />
<glyph unicode="&#x2c6;" horiz-adv-x="555" d="M41 1229l238 188l237 -188l-67 -70l-170 135l-170 -135z" />
<glyph unicode="&#x2c7;" horiz-adv-x="555" d="M41 1348l68 67l170 -135l170 135l67 -67l-237 -189z" />
<glyph unicode="&#x2d8;" d="M139 1337h86q0 -52 30.5 -82t76.5 -30t78 30t32 82h84q0 -86 -55.5 -137t-138.5 -51q-82 0 -137.5 50.5t-55.5 137.5z" />
<glyph unicode="&#x2d9;" horiz-adv-x="309" d="M96 1241v193h117v-193h-117z" />
<glyph unicode="&#x2da;" d="M166 1288q0 79 47 124.5t119 45.5t120 -45.5t48 -122.5q0 -79 -48 -122.5t-120 -43.5t-119 43.5t-47 120.5zM244 1288q0 -41 25.5 -66.5t62.5 -25.5q38 0 64 25t26 67q0 44 -26 70t-64 26q-37 0 -62.5 -26t-25.5 -70z" />
<glyph unicode="&#x2db;" horiz-adv-x="296" d="M96 0h86v-70q0 -51 30.5 -85.5t82.5 -34.5v-74q-91 0 -145 56t-54 138v70z" />
<glyph unicode="&#x2dc;" d="M84 1176q0 71 43.5 113t108.5 42q37 0 65 -13.5t41.5 -29.5t35.5 -29.5t48 -13.5q32 0 54 20.5t22 55.5h78q0 -71 -43 -113.5t-107 -42.5q-37 0 -65 13.5t-42.5 29.5t-36 29.5t-46.5 13.5q-32 0 -54 -20t-22 -55h-80z" />
<glyph unicode="&#x2dd;" horiz-adv-x="557" d="M-12 1212l235 238l70 -70l-236 -237zM264 1212l236 238l69 -70l-235 -237z" />
<glyph unicode="&#x400;" horiz-adv-x="647" d="M51 0v98h60v1237h-60v99h516v-410h-100v311h-240v-551h299v-98h-299v-588h240v312h100v-410h-516zM168 1776l70 69l251 -209l-69 -71z" />
<glyph unicode="&#x401;" horiz-adv-x="647" d="M51 0v98h60v1237h-60v99h516v-410h-100v311h-240v-551h299v-98h-299v-588h240v312h100v-410h-516zM137 1536v190h101v-190h-101zM428 1536v190h102v-190h-102z" />
<glyph unicode="&#x402;" horiz-adv-x="866" d="M47 1024v410h592v-410h-100v311h-138v-571q76 115 211 115q73 0 122.5 -47.5t49.5 -129.5v-968q0 -94 -61.5 -148.5t-153.5 -54.5q-93 0 -155 54.5t-62 148.5v106h117v-106q0 -48 28.5 -76.5t71.5 -28.5t71 28.5t28 76.5v942q0 48 -29.5 76t-71.5 28q-71 0 -118.5 -46.5 t-47.5 -123.5v-512h60v-98h-236v98h60v1237h-135v-311h-103z" />
<glyph unicode="&#x403;" horiz-adv-x="595" d="M51 0v98h60v1237h-60v99h510v-410h-100v311h-234v-1237h60v-98h-236zM143 1636l250 211l72 -69l-252 -213z" />
<glyph unicode="&#x404;" d="M84 225v981q0 109 70.5 172.5t177.5 63.5q71 0 133.5 -18.5t89.5 -37.5l27 -18v-344h-117v281q-49 38 -133 38q-56 0 -93.5 -36.5t-37.5 -100.5v-428h305v-98h-305v-455q0 -62 37.5 -98.5t93.5 -36.5q57 0 95 36t38 99v185h117v-185q0 -109 -71.5 -171t-178.5 -62 t-177.5 62t-70.5 171z" />
<glyph unicode="&#x405;" d="M84 66v344h117v-283q49 -37 131 -37q57 0 95 37t38 98v281q0 46 -21 79.5t-54.5 54t-73.5 38.5t-80.5 39t-74 49t-54.5 76t-21 112v256q0 107 70.5 169.5t175.5 62.5q70 0 132 -18.5t89 -37.5l27 -18v-344h-117v281q-51 38 -131 38q-55 0 -92 -36t-37 -97v-256 q0 -47 21 -81t54.5 -54.5t73.5 -38.5t80.5 -39t74 -48.5t54.5 -75t21 -111.5v-281q0 -107 -71 -170t-179 -63q-70 0 -132 18.5t-89 37.5z" />
<glyph unicode="&#x406;" horiz-adv-x="337" d="M51 0v98h60v1237h-60v99h236v-99h-60v-1237h60v-98h-236z" />
<glyph unicode="&#x407;" horiz-adv-x="337" d="M-27 1554v191h101v-191h-101zM51 0v98h60v1237h-60v99h236v-99h-60v-1237h60v-98h-236zM264 1554v191h103v-191h-103z" />
<glyph unicode="&#x408;" horiz-adv-x="663" d="M84 66v344h117v-283q49 -37 125 -37q54 0 90.5 35.5t36.5 95.5v1114h-60v99h236v-99h-60v-1114q0 -106 -69 -167.5t-174 -61.5q-68 0 -128.5 18.5t-87.5 37.5z" />
<glyph unicode="&#x409;" horiz-adv-x="1069" d="M49 -8v98q47 0 78 45.5t31 122.5v1077h-60v99h518v-650h119q107 0 178.5 -62t71.5 -171v-315q0 -109 -71.5 -172.5t-178.5 -63.5h-295v98h60v1237h-226v-1077q0 -124 -64 -195t-161 -71zM616 98h119q57 0 95 37.5t38 100.5v315q0 63 -38 99t-95 36h-119v-588z" />
<glyph unicode="&#x40a;" horiz-adv-x="1060" d="M51 0v98h60v1237h-60v99h176v-650h265v551h-60v99h236v-99h-60v-551h119q109 0 180.5 -62t71.5 -171v-315q0 -109 -72 -172.5t-180 -63.5h-235v686h-265v-588h60v-98h-236zM608 98h119q57 0 96 37.5t39 100.5v315q0 62 -38.5 98.5t-96.5 36.5h-119v-588z" />
<glyph unicode="&#x40b;" horiz-adv-x="876" d="M47 1024v410h592v-410h-100v311h-138v-571q76 115 211 115q73 0 122.5 -47.5t49.5 -129.5v-604h60v-98h-176v676q0 48 -29.5 76t-71.5 28q-71 0 -118.5 -46.5t-47.5 -123.5v-512h60v-98h-236v98h60v1237h-135v-311h-103z" />
<glyph unicode="&#x40c;" horiz-adv-x="684" d="M51 0v98h60v1237h-60v99h176v-650h76l182 551h-55v99h232v-99h-62l-205 -600l213 -637h60v-98h-156l-207 686h-78v-588h60v-98h-236zM180 1636l250 211l72 -69l-252 -213z" />
<glyph unicode="&#x40d;" horiz-adv-x="722" d="M51 0v98h60v1237h-60v99h172v-1045h2l275 942v103h172v-99h-60v-1237h60v-98h-172v1044h-4l-273 -942v-102h-172zM201 1776l69 69l252 -209l-69 -71z" />
<glyph unicode="&#x40e;" horiz-adv-x="673" d="M2 1335v99h164l168 -916h4l156 817h-58v99h234v-99h-62l-246 -1145q-19 -92 -74 -141t-145 -49h-55v98h55q80 0 103 95l49 217h-35l-197 925h-61zM143 1747h86q0 -52 30.5 -82.5t76.5 -30.5t78 30.5t32 82.5h84q0 -86 -55.5 -137t-138.5 -51q-82 0 -137.5 50.5 t-55.5 137.5z" />
<glyph unicode="&#x40f;" horiz-adv-x="718" d="M51 0v98h60v1237h-60v99h176v-1336h265v1237h-60v99h236v-99h-60v-1237h60v-98h-248v-256h-117v256h-252z" />
<glyph unicode="&#x410;" horiz-adv-x="673" d="M-2 0v98h59l189 1237h-49v99h217l198 -1336h64v-98h-168l-55 385h-234l-45 -287h59v-98h-235zM227 483h219l-106 809h-4z" />
<glyph unicode="&#x411;" horiz-adv-x="679" d="M51 0v98h60v1237h-60v99h516v-410h-100v311h-240v-481h119q107 0 178.5 -62t71.5 -171v-385q0 -109 -71.5 -172.5t-178.5 -63.5h-295zM227 98h119q57 0 95 37.5t38 100.5v385q0 63 -38 99t-95 36h-119v-658z" />
<glyph unicode="&#x412;" horiz-adv-x="679" d="M51 0v98h60v1237h-60v99h295q107 0 178.5 -63.5t71.5 -172.5v-244q0 -77 -38.5 -132t-102.5 -79q67 -24 106 -79.5t39 -135.5v-292q0 -109 -71.5 -172.5t-178.5 -63.5h-299zM227 98h123q57 0 95 37.5t38 100.5v321q0 63 -38 99t-95 36h-123v-594zM227 791h119q57 0 95 36 t38 99v272q0 63 -38 100t-95 37h-119v-544z" />
<glyph unicode="&#x413;" horiz-adv-x="616" d="M51 0v98h60v1237h-60v99h510v-410h-100v311h-234v-1237h60v-98h-236z" />
<glyph unicode="&#x414;" horiz-adv-x="786" d="M49 98h23q46 0 77 45.5t31 122.5v1069h-59v99h577v-99h-59v-1237h98v-354h-116v256h-455v-256h-117v354zM244 98h278v1237h-225v-1069q0 -109 -53 -168z" />
<glyph unicode="&#x415;" horiz-adv-x="651" d="M51 0v98h60v1237h-60v99h516v-410h-100v311h-240v-551h299v-98h-299v-588h240v312h100v-410h-516z" />
<glyph unicode="&#x416;" horiz-adv-x="1030" d="M16 0v98h60l215 637l-207 600h-61v99h155l203 -650h76v551h-58v99h174v-650h78l183 551h-58v99h232v-99h-60l-207 -600l213 -637h62v-98h-156l-209 686h-78v-588h60v-98h-234v98h58v588h-76l-188 -588h55v-98h-232z" />
<glyph unicode="&#x417;" horiz-adv-x="657" d="M80 1024v344q4 3 11 8t30.5 18t50 22.5t68 17.5t84.5 8q107 0 178 -63.5t71 -172.5v-252q0 -77 -38 -132t-103 -79q67 -24 106.5 -80t39.5 -135v-301q0 -109 -71.5 -172t-178.5 -63q-104 0 -174 62t-70 167v189h117v-189q0 -60 36.5 -95.5t90.5 -35.5q57 0 95 37t38 100 v330q0 63 -38 99t-95 36h-105v99h101q57 0 95 36t38 99v280q0 63 -38 100t-95 37q-35 0 -66.5 -9.5t-45.5 -19.5l-15 -9v-281h-117z" />
<glyph unicode="&#x418;" horiz-adv-x="722" d="M51 0v98h60v1237h-60v99h172v-1045h2l275 942v103h172v-99h-60v-1237h60v-98h-172v1044h-4l-273 -942v-102h-172z" />
<glyph unicode="&#x419;" horiz-adv-x="722" d="M51 0v98h60v1237h-60v99h172v-1045h2l275 942v103h172v-99h-60v-1237h60v-98h-172v1044h-4l-273 -942v-102h-172zM168 1747h86q0 -52 30 -82.5t76 -30.5t78.5 30.5t32.5 82.5h84q0 -86 -56 -137t-139 -51q-82 0 -137 50.5t-55 137.5z" />
<glyph unicode="&#x41a;" horiz-adv-x="684" d="M51 0v98h60v1237h-60v99h176v-650h76l182 551h-55v99h232v-99h-62l-205 -600l213 -637h60v-98h-156l-207 686h-78v-588h60v-98h-236z" />
<glyph unicode="&#x41b;" horiz-adv-x="727" d="M49 -8v98q47 0 78 45.5t31 122.5v1077h-60v99h578v-99h-60v-1237h60v-98h-176v1335h-226v-1077q0 -124 -64 -195t-161 -71z" />
<glyph unicode="&#x41c;" horiz-adv-x="995" d="M51 0v98h60v1237h-60v99h234l209 -1256h4l213 1256h233v-99h-59v-1237h59v-98h-172v1227h-4l-203 -1227h-137l-201 1227h-4v-1129h60v-98h-232z" />
<glyph unicode="&#x41d;" horiz-adv-x="718" d="M51 0v98h60v1237h-60v99h176v-650h265v551h-60v99h236v-99h-60v-1237h60v-98h-176v686h-265v-588h60v-98h-236z" />
<glyph unicode="&#x41e;" d="M84 225v981q0 109 70.5 172.5t177.5 63.5t178.5 -63.5t71.5 -172.5v-981q0 -109 -71.5 -171t-178.5 -62t-177.5 62t-70.5 171zM201 225q0 -62 37.5 -98.5t93.5 -36.5q57 0 95 36t38 99v981q0 63 -38 100t-95 37q-56 0 -93.5 -37t-37.5 -100v-981z" />
<glyph unicode="&#x41f;" horiz-adv-x="718" d="M51 0v98h60v1237h-60v99h617v-99h-60v-1237h60v-98h-176v1335h-265v-1237h60v-98h-236z" />
<glyph unicode="&#x420;" horiz-adv-x="690" d="M51 0v98h60v1237h-60v99h295q107 0 178.5 -63.5t71.5 -172.5v-377q0 -109 -71.5 -171t-178.5 -62h-119v-490h60v-98h-236zM227 686h119q57 0 95 36t38 99v377q0 63 -38 100t-95 37h-119v-649z" />
<glyph unicode="&#x421;" horiz-adv-x="653" d="M84 219v993q0 106 69.5 168t172.5 62q69 0 130 -18.5t87 -37.5l26 -18v-344h-116v281q-49 38 -127 38q-53 0 -89 -35.5t-36 -95.5v-993q0 -60 35.5 -94.5t89.5 -34.5t90.5 34.5t36.5 94.5v191h116v-191q0 -105 -69.5 -166t-173.5 -61t-173 61t-69 166z" />
<glyph unicode="&#x422;" horiz-adv-x="686" d="M47 1024v410h592v-410h-100v311h-138v-1237h60v-98h-236v98h60v1237h-135v-311h-103z" />
<glyph unicode="&#x423;" horiz-adv-x="673" d="M2 1335v99h164l168 -916h4l156 817h-58v99h234v-99h-62l-246 -1145q-19 -92 -74 -141t-145 -49h-55v98h55q80 0 103 95l49 217h-35l-197 925h-61z" />
<glyph unicode="&#x424;" horiz-adv-x="956" d="M84 422v590q0 110 71 171.5t179 61.5h86v90h-60v99h177v-189h86q109 0 180 -61.5t71 -171.5v-590q0 -109 -71.5 -171.5t-179.5 -62.5h-86v-90h59v-98h-236v98h60v90h-86q-107 0 -178.5 62.5t-71.5 171.5zM201 422q0 -63 38 -100t95 -37h86v864h-86q-57 0 -95 -37 t-38 -100v-590zM537 285h86q57 0 96 37t39 100v590q0 63 -39 100t-96 37h-86v-864z" />
<glyph unicode="&#x425;" horiz-adv-x="673" d="M4 0v98h59l185 639l-176 598h-62v99h160l164 -641h4l149 542h-59v99h234v-99h-60l-176 -600l182 -637h64v-98h-162l-170 682h-4l-158 -584h60v-98h-234z" />
<glyph unicode="&#x426;" horiz-adv-x="768" d="M51 0v98h60v1237h-60v99h176v-1336h265v1237h-60v99h236v-99h-60v-1237h101v-354h-117v256h-541z" />
<glyph unicode="&#x427;" horiz-adv-x="702" d="M35 1335v99h176v-646q0 -48 28.5 -75t71.5 -27q70 0 117 46.5t47 123.5v479h-59v99h176v-1336h59v-98h-235v98h59v602q-35 -54 -90.5 -83t-120.5 -29q-72 0 -121 47t-49 127v573h-59z" />
<glyph unicode="&#x428;" horiz-adv-x="1075" d="M51 0v98h60v1237h-60v99h176v-1336h252v1237h-59v99h176v-1336h252v1237h-60v99h236v-99h-59v-1237h59v-98h-973z" />
<glyph unicode="&#x429;" horiz-adv-x="1114" d="M51 0v98h60v1237h-60v99h176v-1336h252v1237h-59v99h176v-1336h252v1237h-60v99h236v-99h-59v-1237h98v-354h-117v256h-895z" />
<glyph unicode="&#x42a;" horiz-adv-x="874" d="M53 1024v410h369v-580h119q107 0 178.5 -62t71.5 -171v-385q0 -109 -71.5 -172.5t-178.5 -63.5h-295v98h59v1237h-149v-311h-103zM422 98h119q56 0 94.5 37.5t38.5 100.5v385q0 62 -38.5 98.5t-94.5 36.5h-119v-658z" />
<glyph unicode="&#x42b;" horiz-adv-x="942" d="M51 0v98h60v1237h-60v99h176v-580h119q107 0 178.5 -62t71.5 -171v-385q0 -109 -71.5 -172.5t-178.5 -63.5h-295zM227 98h119q57 0 95 37.5t38 100.5v385q0 63 -38 99t-95 36h-119v-658zM657 0v98h58v1237h-58v99h174v-1336h60v-98h-234z" />
<glyph unicode="&#x42c;" horiz-adv-x="679" d="M51 0v98h60v1237h-60v99h176v-580h119q107 0 178.5 -62t71.5 -171v-385q0 -109 -71.5 -172.5t-178.5 -63.5h-295zM227 98h119q57 0 95 37.5t38 100.5v385q0 63 -38 99t-95 36h-119v-658z" />
<glyph unicode="&#x42d;" d="M84 225v185h117v-185q0 -63 38 -99t95 -36q56 0 93.5 36.5t37.5 98.5v455h-258v98h258v428q0 62 -38 99.5t-93 37.5q-36 0 -69.5 -9.5t-48.5 -19.5l-15 -9v-281h-117v344q10 8 29.5 20.5t84.5 33t136 20.5q105 0 176.5 -63.5t71.5 -172.5v-981q0 -109 -70.5 -171 t-177.5 -62t-178.5 62t-71.5 171z" />
<glyph unicode="&#x42e;" horiz-adv-x="958" d="M51 0v98h60v1237h-60v99h176v-656h150v428q0 109 70.5 172.5t177.5 63.5t178 -63.5t71 -172.5v-981q0 -109 -71 -171t-178 -62t-177.5 62t-70.5 171v455h-150v-582h60v-98h-236zM494 225q0 -63 37 -99t94 -36t95 36t38 99v981q0 63 -38 100t-95 37t-94 -37t-37 -100v-981 z" />
<glyph unicode="&#x42f;" horiz-adv-x="669" d="M-2 0v98h59l168 551q-69 20 -110 73.5t-41 135.5v340q0 109 71.5 172.5t178.5 63.5h294v-99h-59v-1237h59v-98h-176v625h-116l-154 -527h57v-98h-231zM190 858q0 -63 38 -99t96 -36h118v612h-118q-57 0 -95.5 -37t-38.5 -100v-340z" />
<glyph unicode="&#x430;" horiz-adv-x="675" d="M84 162v190q0 106 63 163.5t166 70.5l152 18v195q0 61 -36.5 98t-92.5 37q-35 0 -67 -10t-47 -20l-15 -9v-197h-117v258q4 3 11 8t31 18.5t50.5 23.5t68 18t85.5 8q107 0 176.5 -62t69.5 -171v-701h59v-98h-176v106q-34 -55 -93.5 -84.5t-123.5 -29.5q-70 0 -117 45.5 t-47 124.5zM201 188q0 -46 27 -72t67 -26q67 0 118.5 47t51.5 123v246l-131 -17q-60 -8 -96.5 -42t-36.5 -95v-164z" />
<glyph unicode="&#x431;" d="M84 225v850q0 62 20 108.5t52 73.5t70.5 46.5t77 35t70.5 33t52 46t20 67.5h95q0 -55 -19 -95t-48.5 -63t-66 -41t-73 -34.5t-66 -36.5t-48.5 -55.5t-19 -84.5v-157q35 55 90.5 84.5t120.5 29.5q72 0 121 -47t49 -129v-631q0 -109 -71.5 -171t-178.5 -62t-177.5 62 t-70.5 171zM201 225q0 -62 37.5 -98.5t93.5 -36.5q57 0 95 36t38 99v604q0 48 -28.5 76.5t-71.5 28.5q-70 0 -117 -46.5t-47 -123.5v-539z" />
<glyph unicode="&#x432;" horiz-adv-x="679" d="M51 0v98h60v828h-60v98h295q102 0 170 -59.5t68 -163.5v-64q0 -74 -35 -124.5t-94 -73.5q67 -24 106 -79.5t39 -135.5v-88q0 -109 -71.5 -172.5t-178.5 -63.5h-299zM227 98h123q57 0 95 37.5t38 100.5v116q0 63 -38 99t-95 36h-123v-389zM227 586h119q53 0 87 33t34 90 v92q0 58 -34 91.5t-87 33.5h-119v-340z" />
<glyph unicode="&#x433;" horiz-adv-x="595" d="M51 0v98h60v828h-60v98h492v-326h-103v228h-213v-828h60v-98h-236z" />
<glyph unicode="&#x434;" horiz-adv-x="786" d="M49 98h23q46 0 77 45.5t31 122.5v660h-59v98h577v-98h-59v-828h98v-354h-116v256h-455v-256h-117v354zM244 98h278v828h-225v-660q0 -109 -53 -168z" />
<glyph unicode="&#x435;" d="M84 225v572q0 109 70.5 172t177.5 63t178.5 -63t71.5 -172v-322h-381v-250q0 -62 37.5 -98.5t93.5 -36.5q57 0 95 36t38 99v101h117v-101q0 -109 -71.5 -171t-178.5 -62t-177.5 62t-70.5 171zM201 573h264v224q0 67 -37 102t-96 35q-57 0 -94 -35t-37 -102v-224z" />
<glyph unicode="&#x436;" horiz-adv-x="1030" d="M23 0v98h61l188 426l-180 402h-61v98h147l182 -453h97v355h-60v98h176v-453h95l155 355h-55v98h229v-98h-61l-180 -402l188 -426h62v-98h-148l-190 477h-95v-379h60v-98h-236v98h60v379h-97l-159 -379h53v-98h-231z" />
<glyph unicode="&#x437;" horiz-adv-x="657" d="M80 698v258q4 3 11 8t30.5 18.5t50 23.5t68 18t84.5 8q107 0 178 -63t71 -172v-54q0 -79 -38 -133t-103 -78q67 -26 106.5 -81t39.5 -134v-90q0 -109 -71.5 -172t-178.5 -63q-104 0 -174 62t-70 167v105h117v-105q0 -60 36.5 -95.5t90.5 -35.5q57 0 95 37t38 100v119 q0 63 -38 99t-95 36h-101v99h97q57 0 95 36t38 99v82q0 63 -38 100t-95 37q-35 0 -66.5 -10t-45.5 -20l-15 -9v-197h-117z" />
<glyph unicode="&#x438;" horiz-adv-x="722" d="M47 0v98h64v828h-64v98h176v-721h2l275 672v49h176v-98h-64v-828h64v-98h-176v721h-4l-273 -672v-49h-176z" />
<glyph unicode="&#x439;" horiz-adv-x="722" d="M47 0v98h64v828h-64v98h176v-721h2l275 672v49h176v-98h-64v-828h64v-98h-176v721h-4l-273 -672v-49h-176zM168 1337h86q0 -52 30 -82t76 -30q47 0 79 30t32 82h84q0 -86 -56 -137t-139 -51q-82 0 -137 50.5t-55 137.5z" />
<glyph unicode="&#x43a;" horiz-adv-x="684" d="M51 0v98h60v828h-60v98h176v-453h95l155 355h-55v98h229v-98h-59l-182 -402l188 -426h61v-98h-147l-190 477h-95v-379h60v-98h-236z" />
<glyph unicode="&#x43b;" horiz-adv-x="727" d="M49 -8v98q47 0 78 45.5t31 122.5v668h-60v98h578v-98h-60v-828h60v-98h-176v926h-226v-668q0 -124 -64 -195t-161 -71z" />
<glyph unicode="&#x43c;" horiz-adv-x="980" d="M51 0v98h60v828h-60v98h232l204 -874h5l204 874h234v-98h-60v-828h60v-98h-168v881h-4l-201 -881h-135l-199 881h-4v-783h60v-98h-228z" />
<glyph unicode="&#x43d;" horiz-adv-x="718" d="M51 0v98h60v828h-60v98h176v-451h265v353h-60v98h236v-98h-60v-828h60v-98h-176v475h-265v-377h60v-98h-236z" />
<glyph unicode="&#x43e;" d="M84 225v572q0 109 70.5 172t177.5 63t178.5 -63t71.5 -172v-572q0 -109 -71.5 -171t-178.5 -62t-177.5 62t-70.5 171zM201 225q0 -62 37.5 -98.5t93.5 -36.5q57 0 95 36t38 99v572q0 63 -38 100t-95 37q-56 0 -93.5 -37t-37.5 -100v-572z" />
<glyph unicode="&#x43f;" horiz-adv-x="718" d="M51 0v98h60v828h-60v98h617v-98h-60v-828h60v-98h-176v926h-265v-828h60v-98h-236z" />
<glyph unicode="&#x440;" horiz-adv-x="692" d="M51 -311h60v1237h-60v98h176v-106q37 55 91.5 84.5t119.5 29.5q72 0 121 -47t49 -129v-631q0 -109 -64.5 -171t-162.5 -62q-90 0 -154 35v-338h60v-99h-236v99zM227 129q51 -39 131 -39q58 0 96 36t38 99v604q0 48 -29 76.5t-72 28.5q-70 0 -117 -46.5t-47 -123.5v-635z " />
<glyph unicode="&#x441;" horiz-adv-x="653" d="M84 219v584q0 105 69.5 167t172.5 62q68 0 129 -19t87 -38l27 -19v-258h-116v197q-49 39 -127 39q-54 0 -89.5 -35.5t-35.5 -95.5v-584q0 -60 35.5 -94.5t89.5 -34.5t90.5 34.5t36.5 94.5v107h116v-107q0 -105 -69.5 -166t-173.5 -61t-173 61t-69 166z" />
<glyph unicode="&#x442;" horiz-adv-x="657" d="M47 698v326h563v-326h-92v228h-131v-828h59v-98h-235v98h59v828h-133v-228h-90z" />
<glyph unicode="&#x443;" horiz-adv-x="673" d="M2 926v98h164l168 -915h4l156 817h-58v98h234v-98h-62l-246 -1145q-19 -92 -74.5 -141.5t-144.5 -49.5h-55v99h55q81 0 103 94l49 217h-35l-197 926h-61z" />
<glyph unicode="&#x444;" horiz-adv-x="956" d="M84 236v555q0 109 71.5 171t178.5 62h86v362h-60v99h177v-461h86q108 0 179.5 -62t71.5 -171v-555q0 -109 -71.5 -172.5t-179.5 -63.5h-86v-311h59v-99h-236v99h60v311h-86q-107 0 -178.5 63.5t-71.5 172.5zM201 236q0 -63 38 -100.5t95 -37.5h86v828h-86q-57 0 -95 -36 t-38 -99v-555zM537 98h86q57 0 96 37.5t39 100.5v555q0 62 -38.5 98.5t-96.5 36.5h-86v-828z" />
<glyph unicode="&#x445;" horiz-adv-x="686" d="M20 0v98h62l184 426l-176 402h-63v98h151l162 -428h4l139 330h-55v98h231v-98h-63l-176 -402l182 -426h64v-98h-152l-170 457h-4l-145 -359h57v-98h-232z" />
<glyph unicode="&#x446;" horiz-adv-x="768" d="M51 0v98h60v828h-60v98h176v-926h265v828h-60v98h236v-98h-60v-828h101v-354h-117v256h-541z" />
<glyph unicode="&#x447;" horiz-adv-x="702" d="M35 926v98h176v-440q0 -48 28.5 -75.5t71.5 -27.5q70 0 117 46.5t47 123.5v275h-59v98h176v-926h59v-98h-235v98h59v398q-35 -54 -90.5 -83.5t-120.5 -29.5q-72 0 -121 47t-49 127v369h-59z" />
<glyph unicode="&#x448;" horiz-adv-x="1075" d="M51 0v98h60v828h-60v98h176v-926h252v828h-59v98h176v-926h252v828h-60v98h236v-98h-59v-828h59v-98h-973z" />
<glyph unicode="&#x449;" horiz-adv-x="1114" d="M51 0v98h60v828h-60v98h176v-926h252v828h-59v98h176v-926h252v828h-60v98h236v-98h-59v-828h98v-354h-117v256h-895z" />
<glyph unicode="&#x44a;" horiz-adv-x="874" d="M55 698v326h367v-395h119q107 0 179.5 -62.5t72.5 -171.5v-159q0 -109 -72.5 -172.5t-179.5 -63.5h-295v98h59v828h-147v-228h-103zM422 98h119q57 0 96 37.5t39 100.5v159q0 62 -38.5 98.5t-96.5 36.5h-119v-432z" />
<glyph unicode="&#x44b;" horiz-adv-x="942" d="M51 0v98h60v828h-60v98h176v-395h119q107 0 178.5 -62.5t71.5 -171.5v-159q0 -109 -71.5 -172.5t-178.5 -63.5h-295zM227 98h119q57 0 95 37.5t38 100.5v159q0 63 -38 99t-95 36h-119v-432zM657 0v98h58v828h-58v98h174v-926h60v-98h-234z" />
<glyph unicode="&#x44c;" horiz-adv-x="679" d="M51 0v98h60v828h-60v98h176v-395h119q107 0 178.5 -62.5t71.5 -171.5v-159q0 -109 -71.5 -172.5t-178.5 -63.5h-295zM227 98h119q57 0 95 37.5t38 100.5v159q0 63 -38 99t-95 36h-119v-432z" />
<glyph unicode="&#x44d;" d="M84 225v101h117v-101q0 -63 38 -99t95 -36q56 0 93.5 36.5t37.5 98.5v250h-246v98h246v224q0 67 -37 102t-94 35q-36 0 -69.5 -13t-48.5 -25l-15 -13v-185h-117v246q4 4 11 9.5t31.5 21t51.5 27t69.5 21t86.5 9.5q107 0 177.5 -63t70.5 -172v-572q0 -109 -70.5 -171 t-177.5 -62t-178.5 62t-71.5 171z" />
<glyph unicode="&#x44e;" horiz-adv-x="958" d="M51 0v98h60v828h-60v98h176v-451h150v224q0 109 70.5 172t177.5 63t178 -63t71 -172v-572q0 -109 -71 -171t-178 -62t-177.5 62t-70.5 171v250h-150v-377h60v-98h-236zM494 225q0 -63 37 -99t94 -36t95 36t38 99v572q0 63 -38 100t-95 37t-94 -37t-37 -100v-572z" />
<glyph unicode="&#x44f;" horiz-adv-x="659" d="M14 0v98h68l139 336q-72 19 -115 75t-43 140v139q0 109 71.5 172.5t178.5 63.5h295v-98h-59v-828h59v-98h-176v416h-117l-125 -318h56v-98h-232zM180 649q0 -63 38 -99t95 -36h119v412h-119q-57 0 -95 -37.5t-38 -100.5v-139z" />
<glyph unicode="&#x450;" d="M84 225v572q0 109 70.5 172t177.5 63t178.5 -63t71.5 -172v-322h-381v-250q0 -62 37.5 -98.5t93.5 -36.5q57 0 95 36t38 99v101h117v-101q0 -109 -71.5 -171t-178.5 -62t-177.5 62t-70.5 171zM172 1366l70 70l252 -209l-70 -72zM201 573h264v224q0 67 -37 102t-96 35 q-57 0 -94 -35t-37 -102v-224z" />
<glyph unicode="&#x451;" d="M84 225v572q0 109 70.5 172t177.5 63t178.5 -63t71.5 -172v-322h-381v-250q0 -62 37.5 -98.5t93.5 -36.5q57 0 95 36t38 99v101h117v-101q0 -109 -71.5 -171t-178.5 -62t-177.5 62t-70.5 171zM137 1210v191h101v-191h-101zM201 573h264v224q0 67 -37 102t-96 35 q-57 0 -94 -35t-37 -102v-224zM428 1210v191h102v-191h-102z" />
<glyph unicode="&#x452;" horiz-adv-x="727" d="M49 1200v98h96v187h117v-187h264v-98h-264v-282q35 55 90.5 84.5t120.5 29.5q72 0 121 -47t49 -129v-1122q0 -94 -61.5 -148.5t-153.5 -54.5t-153.5 54.5t-61.5 148.5v106h117v-106q0 -48 28.5 -76.5t69.5 -28.5q42 0 70 28.5t28 76.5v1095q0 48 -28.5 76.5t-71.5 28.5 q-70 0 -117 -46.5t-47 -123.5v-666h60v-98h-236v98h59v1102h-96z" />
<glyph unicode="&#x453;" horiz-adv-x="577" d="M51 0v98h60v828h-60v98h492v-326h-103v228h-213v-828h60v-98h-236zM133 1227l250 211l72 -70l-252 -213z" />
<glyph unicode="&#x454;" d="M84 225v572q0 109 70.5 172t177.5 63q70 0 132.5 -22t89.5 -44l28 -22v-239h-117v178q-6 6 -16.5 14.5t-45.5 22.5t-71 14q-57 0 -94 -35t-37 -102v-224h295v-98h-295v-250q0 -62 37.5 -98.5t93.5 -36.5q57 0 95 36t38 99v101h117v-101q0 -109 -71.5 -171t-178.5 -62 t-177.5 62t-70.5 171z" />
<glyph unicode="&#x455;" horiz-adv-x="653" d="M84 68v258h117v-197q49 -39 125 -39q54 0 90.5 35.5t36.5 93.5v123q0 55 -38 87t-91.5 49t-107.5 37.5t-92 69.5t-38 128v94q0 104 68 164.5t170 60.5q67 0 126 -19t85 -38l26 -19v-258h-117v197q-48 39 -120 39q-52 0 -86.5 -34t-34.5 -93v-94q0 -41 20 -68.5t52.5 -43 t71.5 -28t78 -28.5t71.5 -38.5t52.5 -64.5t20 -100v-123q0 -105 -69 -166t-174 -61q-68 0 -128.5 19t-87.5 38z" />
<glyph unicode="&#x456;" horiz-adv-x="337" d="M51 0v98h60v828h-60v98h176v-926h60v-98h-236zM111 1241v193h116v-193h-116z" />
<glyph unicode="&#x457;" horiz-adv-x="337" d="M-27 1210v191h101v-191h-101zM51 0v98h60v828h-60v98h176v-926h60v-98h-236zM264 1210v191h103v-191h-103z" />
<glyph unicode="&#x458;" horiz-adv-x="327" d="M-80 -356q30 -15 76 -15q49 0 82 30t33 81v1186h-60v98h176v-1284q0 -96 -63 -152.5t-156 -56.5q-55 0 -88 14v99zM111 1241v193h116v-193h-116z" />
<glyph unicode="&#x459;" horiz-adv-x="1069" d="M49 -8v98q47 0 78 45.5t31 122.5v668h-60v98h518v-440h119q107 0 178.5 -62.5t71.5 -171.5v-114q0 -109 -71.5 -172.5t-178.5 -63.5h-295v88h60v838h-226v-668q0 -124 -64 -195t-161 -71zM616 98h119q57 0 95 37.5t38 100.5v114q0 63 -38 99t-95 36h-119v-387z" />
<glyph unicode="&#x45a;" horiz-adv-x="1060" d="M51 0v98h60v828h-60v98h176v-440h265v342h-60v98h236v-98h-60v-342h119q108 0 180 -62.5t72 -171.5v-114q0 -109 -72 -172.5t-180 -63.5h-235v485h-265v-387h60v-98h-236zM608 98h119q57 0 96 37.5t39 100.5v114q0 62 -38.5 98.5t-96.5 36.5h-119v-387z" />
<glyph unicode="&#x45b;" horiz-adv-x="747" d="M59 1200v98h97v187h116v-187h265v-98h-265v-282q35 55 90.5 84.5t120.5 29.5q72 0 121 -47t49 -129v-758h60v-98h-176v829q0 48 -29 76.5t-72 28.5q-70 0 -117 -46.5t-47 -123.5v-666h60v-98h-236v98h60v1102h-97z" />
<glyph unicode="&#x45c;" horiz-adv-x="684" d="M51 0v98h60v828h-60v98h176v-453h95l155 355h-55v98h229v-98h-59l-182 -402l188 -426h61v-98h-147l-190 477h-95v-379h60v-98h-236zM180 1227l250 211l72 -70l-252 -213z" />
<glyph unicode="&#x45d;" horiz-adv-x="722" d="M47 0v98h64v828h-64v98h176v-721h2l275 672v49h176v-98h-64v-828h64v-98h-176v721h-4l-273 -672v-49h-176zM201 1366l69 70l252 -209l-69 -72z" />
<glyph unicode="&#x45e;" horiz-adv-x="673" d="M2 926v98h164l168 -915h4l156 817h-58v98h234v-98h-62l-246 -1145q-19 -92 -74.5 -141.5t-144.5 -49.5h-55v99h55q81 0 103 94l49 217h-35l-197 926h-61zM143 1337h86q0 -52 30.5 -82t76.5 -30t78 30t32 82h84q0 -86 -55.5 -137t-138.5 -51q-82 0 -137.5 50.5 t-55.5 137.5z" />
<glyph unicode="&#x45f;" horiz-adv-x="718" d="M51 926v98h176v-926h265v828h-60v98h236v-98h-60v-926h-188v-256h-117v256h-192v926h-60z" />
<glyph unicode="&#x490;" horiz-adv-x="604" d="M51 0v98h60v1237h-60v99h398v204h102v-303h-324v-1237h60v-98h-236z" />
<glyph unicode="&#x491;" horiz-adv-x="577" d="M51 0v98h60v828h-60v98h375v205h100v-303h-299v-828h60v-98h-236z" />
<glyph unicode="&#x4d8;" horiz-adv-x="653" d="M84 219v549h369v444q0 60 -36.5 95.5t-90.5 35.5q-34 0 -65 -9.5t-45 -19.5l-15 -9v-281h-117v344q10 8 29 20.5t82 33t131 20.5q105 0 174 -62t69 -168v-993q0 -105 -68.5 -166t-172.5 -61t-174 61t-70 166zM201 219q0 -60 36.5 -94.5t90.5 -34.5q53 0 89 35t36 94v451 h-252v-451z" />
<glyph unicode="&#x4d9;" d="M84 227v346h381v226q0 62 -37.5 98.5t-93.5 36.5q-36 0 -69 -10t-49 -20l-15 -9v-186h-117v247q4 3 11 8t31.5 18.5t51.5 23.5t69.5 18t86.5 8q107 0 177.5 -62t70.5 -171v-572q0 -109 -70.5 -172t-177.5 -63t-178.5 63t-71.5 172zM201 227q0 -67 37 -102t96 -35 q57 0 94 35t37 102v248h-264v-248z" />
<glyph unicode="&#x1e80;" horiz-adv-x="1120" d="M0 1335v99h168l162 -1297h4l147 1297h156l145 -1297h4l156 1198h-59v99h233v-99h-59l-197 -1335h-155l-144 1286h-4l-143 -1286h-156l-199 1335h-59zM399 1776l70 69l252 -209l-70 -71z" />
<glyph unicode="&#x1e81;" horiz-adv-x="1071" d="M2 926v98h164l151 -913h5l137 913h149l137 -913h5l139 815h-60v98h236v-98h-61l-181 -926h-153l-133 903h-5l-135 -903h-153l-183 926h-59zM373 1366l69 70l252 -209l-69 -72z" />
<glyph unicode="&#x1e82;" horiz-adv-x="1120" d="M0 1335v99h168l162 -1297h4l147 1297h156l145 -1297h4l156 1198h-59v99h233v-99h-59l-197 -1335h-155l-144 1286h-4l-143 -1286h-156l-199 1335h-59zM399 1636l250 211l72 -69l-252 -213z" />
<glyph unicode="&#x1e83;" horiz-adv-x="1071" d="M2 926v98h164l151 -913h5l137 913h149l137 -913h5l139 815h-60v98h236v-98h-61l-181 -926h-153l-133 903h-5l-135 -903h-153l-183 926h-59zM375 1227l250 211l71 -70l-252 -213z" />
<glyph unicode="&#x1e84;" horiz-adv-x="1120" d="M0 1335v99h168l162 -1297h4l147 1297h156l145 -1297h4l156 1198h-59v99h233v-99h-59l-197 -1335h-155l-144 1286h-4l-143 -1286h-156l-199 1335h-59zM362 1620v190h101v-190h-101zM653 1620v190h103v-190h-103z" />
<glyph unicode="&#x1e85;" horiz-adv-x="1071" d="M2 926v98h164l151 -913h5l137 913h149l137 -913h5l139 815h-60v98h236v-98h-61l-181 -926h-153l-133 903h-5l-135 -903h-153l-183 926h-59zM338 1210v191h100v-191h-100zM629 1210v191h102v-191h-102z" />
<glyph unicode="&#x1ef2;" horiz-adv-x="673" d="M2 1335v99h162l170 -764h4l156 665h-58v99h234v-99h-64l-213 -858v-379h60v-98h-236v98h59v379l-210 858h-64zM176 1776l70 69l252 -209l-70 -71z" />
<glyph unicode="&#x1ef3;" horiz-adv-x="688" d="M35 926v98h176v-829q0 -49 28.5 -77t71.5 -28q70 0 117 46.5t47 123.5v666h-59v98h176v-1257q0 -109 -69.5 -172.5t-174.5 -63.5q-69 0 -131 19t-89 38l-28 19v221h117v-160q51 -39 129 -39q56 0 92.5 37.5t36.5 100.5v339q-35 -55 -90.5 -84.5t-120.5 -29.5 q-72 0 -121 47t-49 129v758h-59zM188 1366l70 70l252 -209l-70 -72z" />
<glyph unicode="&#x2000;" horiz-adv-x="934" />
<glyph unicode="&#x2001;" horiz-adv-x="1868" />
<glyph unicode="&#x2002;" horiz-adv-x="934" />
<glyph unicode="&#x2003;" horiz-adv-x="1868" />
<glyph unicode="&#x2004;" horiz-adv-x="622" />
<glyph unicode="&#x2005;" horiz-adv-x="467" />
<glyph unicode="&#x2006;" horiz-adv-x="311" />
<glyph unicode="&#x2007;" horiz-adv-x="311" />
<glyph unicode="&#x2008;" horiz-adv-x="233" />
<glyph unicode="&#x2009;" horiz-adv-x="373" />
<glyph unicode="&#x200a;" horiz-adv-x="103" />
<glyph unicode="&#x2010;" horiz-adv-x="450" d="M68 514v96h315v-96h-315z" />
<glyph unicode="&#x2011;" horiz-adv-x="450" d="M68 514v96h315v-96h-315z" />
<glyph unicode="&#x2012;" horiz-adv-x="632" d="M68 588v98h497v-98h-497z" />
<glyph unicode="&#x2013;" horiz-adv-x="698" d="M68 514v96h565v-96h-565z" />
<glyph unicode="&#x2014;" horiz-adv-x="1079" d="M68 514v96h946v-96h-946z" />
<glyph unicode="&#x2018;" horiz-adv-x="305" d="M96 1044v191q0 52 18.5 114.5t37.5 98.5l18 37h96q-6 -15 -15.5 -40.5t-25.5 -91.5t-16 -118v-191h-113z" />
<glyph unicode="&#x2019;" horiz-adv-x="305" d="M39 1044q6 15 15.5 40t25.5 91t16 117v193h113v-193q0 -51 -18 -113t-36 -99l-18 -36h-98z" />
<glyph unicode="&#x201a;" horiz-adv-x="305" d="M39 -250q6 15 15.5 40.5t25.5 91.5t16 118v190h113v-190q0 -52 -18 -114.5t-36 -99.5l-18 -36h-98z" />
<glyph unicode="&#x201c;" horiz-adv-x="516" d="M96 1044v191q0 52 18.5 114.5t37.5 98.5l18 37h96q-6 -15 -15.5 -40.5t-25.5 -91.5t-16 -118v-191h-113zM319 1044v191q0 52 18.5 114.5t36.5 98.5l19 37h96q-6 -15 -15.5 -40.5t-25.5 -91.5t-16 -118v-191h-113z" />
<glyph unicode="&#x201d;" horiz-adv-x="516" d="M39 1044q6 15 15.5 40t25.5 91t16 117v193h113v-193q0 -51 -18 -113t-36 -99l-18 -36h-98zM262 1044q6 15 15.5 40t25.5 91t16 117v193h113v-193q0 -51 -18 -113t-36 -99l-18 -36h-98z" />
<glyph unicode="&#x201e;" horiz-adv-x="516" d="M39 -250q6 15 15.5 40.5t25.5 91.5t16 118v190h113v-190q0 -52 -18 -114.5t-36 -99.5l-18 -36h-98zM262 -250q6 15 15.5 40.5t25.5 91.5t16 118v190h113v-190q0 -52 -18 -114.5t-36 -99.5l-18 -36h-98z" />
<glyph unicode="&#x2020;" horiz-adv-x="595" d="M43 961v98h197v375h116v-375h197v-98h-197v-961h-116v961h-197z" />
<glyph unicode="&#x2021;" horiz-adv-x="595" d="M43 375v98h197v488h-197v98h197v375h116v-375h197v-98h-197v-488h197v-98h-197v-375h-116v375h-197z" />
<glyph unicode="&#x2022;" horiz-adv-x="542" d="M88 436v357h367v-357h-367z" />
<glyph unicode="&#x2026;" horiz-adv-x="790" d="M96 0v190h113v-190h-113zM340 0v190h113v-190h-113zM582 0v190h112v-190h-112z" />
<glyph unicode="&#x202f;" horiz-adv-x="373" />
<glyph unicode="&#x2030;" horiz-adv-x="1501" d="M96 997v256q0 87 53 138t134 51q80 0 135 -51.5t55 -137.5v-256q0 -87 -54.5 -136.5t-135.5 -49.5t-134 49.5t-53 136.5zM178 997q0 -51 30 -79.5t75 -28.5t75.5 29t30.5 79v256q0 51 -30.5 81t-75.5 30q-44 0 -74.5 -30t-30.5 -81v-256zM186 0l568 1434h94l-569 -1434 h-93zM561 178v256q0 87 53 138t134 51t135.5 -51t54.5 -138v-256q0 -87 -54.5 -136.5t-135.5 -49.5t-134 49.5t-53 136.5zM645 178q0 -51 29 -79.5t74 -28.5t75.5 29t30.5 79v256q0 51 -30.5 81t-75.5 30q-44 0 -73.5 -30t-29.5 -81v-256zM1028 178v256q0 87 53 138t133 51 q81 0 136 -51.5t55 -137.5v-256q0 -87 -55 -136.5t-136 -49.5t-133.5 49.5t-52.5 136.5zM1112 178q0 -51 29 -79.5t73 -28.5q45 0 76 29t31 79v256q0 51 -31 81t-76 30q-44 0 -73 -30t-29 -81v-256z" />
<glyph unicode="&#x2039;" horiz-adv-x="387" d="M68 512l143 358h121l-146 -358l146 -358h-121z" />
<glyph unicode="&#x203a;" horiz-adv-x="387" d="M53 154l148 358l-148 358h123l143 -358l-143 -358h-123z" />
<glyph unicode="&#x2044;" horiz-adv-x="821" d="M68 0l567 1434h119l-568 -1434h-118z" />
<glyph unicode="&#x205f;" horiz-adv-x="467" />
<glyph unicode="&#x20ac;" horiz-adv-x="706" d="M53 553v96h84v152h-84v96h84v315q0 106 69.5 168t174.5 62q68 0 128.5 -19t86.5 -38l27 -19v-342h-117v281q-49 38 -125 38q-54 0 -90.5 -35.5t-36.5 -95.5v-315h369v-96h-369v-152h369v-96h-369v-334q0 -59 36 -94t89 -35q54 0 90.5 34.5t36.5 94.5v191h117v-191 q0 -105 -70 -166t-174 -61t-173 61t-69 166v334h-84z" />
<glyph unicode="&#x20b4;" d="M74 549v98h112q28 30 86 81t74 67h-272v96h352q37 60 37 133v186q0 61 -36.5 97t-92.5 36t-93.5 -36t-37.5 -97v-186h-117v186q0 107 71 169.5t177 62.5t176 -62.5t70 -169.5v-186q0 -70 -29 -133h41v-96h-107q-22 -25 -48.5 -49.5t-60.5 -54.5t-50 -44h266v-98h-352 q-39 -64 -39 -139v-185q0 -63 38 -99t95 -36q56 0 93.5 36.5t37.5 98.5v185h117v-185q0 -109 -70.5 -171t-177.5 -62t-178.5 62t-71.5 171v185q0 68 31 139h-41z" />
<glyph unicode="&#x2122;" horiz-adv-x="679" d="M43 1288v166h317v-166h-61v109h-61v-416h26v-59h-123v59h25v416h-62v-109h-61zM391 922v59h25v416h-25v57h131l94 -442h2l95 442h131v-57h-25v-416h25v-59h-90v448h-2l-95 -448h-79l-93 448h-2v-389h25v-59h-117z" />
<glyph unicode="&#x25fc;" horiz-adv-x="1024" d="M0 0v1024h1024v-1024h-1024z" />
</font>
</defs>
</svg>
